<svg width="155" height="57" viewBox="0 0 155 57" fill="none" xmlns="http://www.w3.org/2000/svg">
<g clip-path="url(#clip0_547_5)">
<path d="M141.429 0H13.5705C13.0436 0 12.531 0 12.0184 0C11.5769 0 11.1497 0 10.7083 0.01425C9.75425 0.01425 8.80018 0.114 7.86036 0.27075C6.92053 0.4275 6.00919 0.72675 5.1548 1.1685C4.30041 1.61025 3.53147 2.166 2.84796 2.85C2.16445 3.51975 1.59486 4.3035 1.16766 5.1585C0.740469 6.0135 0.441433 6.9255 0.284796 7.866C0.113918 8.8065 0.0284796 9.76125 0.0284796 10.716C0.0284796 11.1578 0.0142398 11.5852 0 12.027V44.9588C0 45.4005 0 45.828 0.0284796 46.2698C0.0284796 47.2245 0.128158 48.1793 0.284796 49.1198C0.441433 50.0603 0.740469 50.9865 1.1819 51.8273C1.6091 52.6823 2.17869 53.4518 2.8622 54.1215C3.53147 54.8055 4.31465 55.3613 5.16904 55.803C6.02343 56.2305 6.93477 56.544 7.8746 56.7008C8.81442 56.8575 9.76849 56.943 10.7226 56.9573C11.164 56.9573 11.5912 56.9715 12.0326 56.9715C12.5595 56.9715 13.0721 56.9715 13.5848 56.9715H141.444C141.956 56.9715 142.469 56.9715 142.982 56.9715C143.409 56.9715 143.865 56.9715 144.292 56.9573C145.246 56.9573 146.2 56.8575 147.14 56.7008C148.079 56.544 149.005 56.2305 149.859 55.803C150.714 55.3755 151.483 54.8055 152.166 54.1215C152.85 53.4518 153.405 52.668 153.847 51.8273C154.274 50.9723 154.573 50.0603 154.729 49.1198C154.886 48.1793 154.972 47.2245 155 46.2698C155 45.828 155 45.4005 155 44.9588C155 44.4458 155 43.9328 155 43.4055V13.5945C155 13.0673 155 12.5543 155 12.0413C155 11.5995 155 11.172 155 10.7303C154.986 9.7755 154.9 8.82075 154.729 7.88025C154.573 6.93975 154.274 6.02775 153.847 5.17275C152.964 3.46275 151.568 2.06625 149.859 1.18275C149.005 0.75525 148.094 0.456 147.14 0.285C146.2 0.12825 145.246 0.04275 144.292 0.0285C143.865 0.0285 143.409 0.01425 142.982 0.01425C142.469 0.01425 141.956 0.01425 141.444 0.01425L141.429 0Z" fill="#A6A6A6"/>
<path d="M12.0184 55.746C11.5912 55.746 11.164 55.746 10.7368 55.7318C9.83969 55.7318 8.95682 55.6463 8.07396 55.5038C7.24805 55.3613 6.46486 55.1048 5.71015 54.72C4.96968 54.3495 4.30041 53.8508 3.71658 53.2665C3.13275 52.6823 2.63436 52.0125 2.26413 51.2715C1.89389 50.5305 1.62334 49.7325 1.49518 48.906C1.35278 48.0225 1.26734 47.1248 1.2531 46.227C1.2531 45.9277 1.23886 44.9303 1.23886 44.9303V12.027C1.23886 12.027 1.23886 11.0438 1.2531 10.7588C1.2531 9.861 1.33854 8.9775 1.49518 8.094C1.63757 7.2675 1.89389 6.4695 2.26413 5.7285C2.63436 4.9875 3.11851 4.31775 3.71658 3.7335C4.30041 3.14925 4.96968 2.6505 5.71015 2.28C6.45062 1.9095 7.24805 1.63875 8.05972 1.5105C8.94258 1.368 9.83969 1.2825 10.7368 1.2825H12.0184L142.967 1.26825H144.263C145.146 1.29675 146.029 1.368 146.912 1.52475C147.738 1.66725 148.535 1.92375 149.29 2.3085C150.771 3.06375 151.967 4.275 152.736 5.757C153.106 6.498 153.362 7.296 153.505 8.10825C153.647 8.99175 153.733 9.8895 153.747 10.8015C153.747 11.2005 153.747 11.6423 153.747 12.0698C153.747 12.6113 153.747 13.11 153.747 13.623V43.4483C153.747 43.9613 153.747 44.4743 153.747 44.9873C153.747 45.4575 153.747 45.8708 153.747 46.3125C153.733 47.196 153.647 48.0795 153.505 48.9487C153.377 49.7752 153.106 50.5733 152.736 51.3285C152.366 52.0553 151.867 52.725 151.283 53.3093C150.7 53.8935 150.03 54.3923 149.29 54.7628C148.535 55.1475 147.738 55.404 146.912 55.5465C146.029 55.689 145.146 55.7745 144.249 55.7745C143.836 55.7745 143.395 55.7888 142.967 55.7888H141.429H12.0184V55.746Z" fill="black"/>
<path d="M58.6252 23.5837H52.8581L51.4768 27.6735H49.0276L54.4956 12.5257H57.0303L62.4984 27.6735H60.0064L58.6252 23.5837ZM53.4561 21.6885H58.0271L55.7772 15.048H55.7203L53.4704 21.6885H53.4561Z" fill="white"/>
<path d="M74.2889 22.1587C74.2889 25.593 72.452 27.8017 69.6895 27.8017C68.2513 27.873 66.9127 27.132 66.215 25.8637H66.158V31.3357H63.8939V16.644H66.0868V18.4822H66.1295C66.8558 17.2282 68.2085 16.4872 69.6468 16.53C72.452 16.53 74.2889 18.7387 74.2889 22.173V22.1587ZM71.9678 22.1587C71.9678 19.9215 70.8144 18.4537 69.0487 18.4537C67.283 18.4537 66.158 19.95 66.158 22.1587C66.158 24.3675 67.3257 25.878 69.0487 25.878C70.7717 25.878 71.9678 24.4245 71.9678 22.1587Z" fill="white"/>
<path d="M86.4355 22.1587C86.4355 25.593 84.5985 27.8017 81.836 27.8017C80.3978 27.873 79.0592 27.132 78.3615 25.8637H78.3045V31.3357H76.0404V16.644H78.2333V18.4822H78.2761C79.0023 17.2282 80.3551 16.4872 81.7933 16.53C84.5985 16.53 86.4355 18.7387 86.4355 22.173V22.1587ZM84.1001 22.1587C84.1001 19.9215 82.9467 18.4537 81.181 18.4537C79.4152 18.4537 78.2903 19.95 78.2903 22.1587C78.2903 24.3675 79.458 25.878 81.181 25.878C82.904 25.878 84.1001 24.4245 84.1001 22.1587Z" fill="white"/>
<path d="M94.4667 23.4698C94.6376 24.966 96.09 25.9635 98.0836 25.9635C100.077 25.9635 101.373 24.9803 101.373 23.6265C101.373 22.458 100.547 21.7455 98.582 21.261L96.6169 20.7908C93.8401 20.121 92.5443 18.8243 92.5443 16.701C92.5443 14.0933 94.8227 12.2978 98.0551 12.2978C101.288 12.2978 103.452 14.0933 103.523 16.701H101.231C101.088 15.1905 99.8493 14.2785 98.0266 14.2785C96.2039 14.2785 94.9508 15.2048 94.9508 16.5443C94.9508 17.613 95.7483 18.24 97.6991 18.7245L99.3652 19.1378C102.469 19.8788 103.765 21.1185 103.765 23.3415C103.765 26.1773 101.515 27.9443 97.927 27.9443C94.5664 27.9443 92.3022 26.2058 92.1599 23.4698H94.4809H94.4667Z" fill="white"/>
<path d="M108.65 14.022V16.6298H110.743V18.4253H108.65V24.51C108.65 25.4505 109.077 25.8923 109.988 25.8923C110.23 25.8923 110.486 25.8637 110.729 25.8352V27.6165C110.316 27.6877 109.888 27.7305 109.475 27.7163C107.24 27.7163 106.371 26.8755 106.371 24.738V18.411H104.762V16.6155H106.371V14.0078H108.65V14.022Z" fill="white"/>
<path d="M111.967 22.1588C111.967 18.6818 114.018 16.5015 117.208 16.5015C120.397 16.5015 122.448 18.6818 122.448 22.1588C122.448 25.6358 120.426 27.816 117.208 27.816C114.004 27.816 111.967 25.6358 111.967 22.1588ZM120.127 22.1588C120.127 19.779 119.03 18.3683 117.193 18.3683C115.356 18.3683 114.26 19.779 114.26 22.1588C114.26 24.5385 115.356 25.9493 117.193 25.9493C119.03 25.9493 120.127 24.5528 120.127 22.1588Z" fill="white"/>
<path d="M124.299 16.644H126.463V18.525H126.52C126.819 17.3138 127.93 16.4873 129.169 16.53C129.425 16.53 129.696 16.5585 129.938 16.6155V18.7388C129.61 18.639 129.269 18.5963 128.927 18.5963C127.674 18.5393 126.606 19.5225 126.549 20.7908C126.549 20.9048 126.549 21.0188 126.549 21.147V27.702H124.285V16.6583L124.299 16.644Z" fill="white"/>
<path d="M140.39 24.4388C139.877 26.5905 137.841 28.044 135.634 27.816C132.43 27.816 130.436 25.6643 130.436 22.2158C130.436 18.7673 132.444 16.5015 135.548 16.5015C138.653 16.5015 140.518 18.5963 140.518 21.945V22.7288H132.729V22.8713C132.587 24.453 133.754 25.8495 135.335 25.992C135.449 25.992 135.577 25.992 135.691 25.992C136.787 26.0918 137.827 25.4648 138.24 24.4388H140.39ZM132.729 21.147H138.24C138.325 19.6793 137.2 18.4253 135.734 18.354C135.662 18.354 135.591 18.354 135.534 18.354C133.996 18.354 132.729 19.5938 132.729 21.1328C132.729 21.1328 132.729 21.147 132.729 21.1613V21.147Z" fill="white"/>
<path d="M51.8898 43.9042L51.9894 42.7357C52.4309 42.8782 52.8865 42.9495 53.3422 42.9495C53.7552 42.9495 53.9118 42.9067 54.1254 42.6217C54.6096 41.5957 54.8232 40.4557 54.7377 39.3157C54.7377 38.1045 54.3675 37.7625 53.4134 37.7625C53.1998 37.7625 52.9577 37.7625 52.6872 37.791C52.1746 39.8715 51.3202 41.8665 50.1667 43.662L49.056 43.0635C50.1383 41.496 50.9357 39.7575 51.4056 37.905C50.6651 37.9905 49.9389 38.1045 49.2269 38.2612L48.9848 37.0785C49.7965 36.936 50.7791 36.7935 51.6904 36.7222C51.8755 35.8245 52.0179 34.9267 52.1034 34.029L53.4134 34.1715C53.2995 34.9837 53.1429 35.8102 52.9577 36.6082H53.4846C55.1934 36.6082 56.0051 37.449 56.0051 39.2445C56.0763 40.6125 55.8057 41.9805 55.2219 43.2345C54.9086 43.8187 54.2678 44.1607 53.6128 44.0895C53.0289 44.0895 52.4594 44.0182 51.8898 43.8757V43.9042ZM56.2044 36.6795L57.187 36.024C58.5397 37.335 59.3656 39.102 59.4796 40.983L58.198 41.1825C58.1837 39.4725 57.4575 37.848 56.2187 36.6795H56.2044Z" fill="white"/>
<path d="M63.9224 44.0895L63.6518 42.8783C63.9936 42.9068 64.435 42.921 64.6913 42.921C67.3399 42.921 68.3509 42.1658 68.3509 41.0543C68.3509 40.1708 67.7814 39.6578 66.4855 39.6578C65.0758 39.786 63.78 40.4273 62.8117 41.4533L61.7722 40.9973C61.5728 39.2445 61.9715 37.4633 62.9113 35.967L64.1075 36.3518C63.367 37.3635 62.9968 38.589 63.0822 39.843C64.1644 39.0878 65.4318 38.646 66.7418 38.589C68.5361 38.589 69.6468 39.5153 69.6468 41.0115C69.6468 42.921 68.1516 44.0895 64.5347 44.0895C64.3638 44.0895 64.1075 44.0895 63.8939 44.0895H63.9224ZM62.6693 35.1833L63.011 34.0005C64.791 34.2713 66.5567 34.6703 68.2797 35.2118L67.9522 36.3803C66.2292 35.8245 64.4635 35.4255 62.6693 35.1833Z" fill="white"/>
<path d="M73.5485 43.1633C74.9297 42.7073 76.1686 41.9092 77.1511 40.8262C76.3679 40.185 75.5278 39.615 74.6449 39.1305L75.3854 38.2042C76.2825 38.6602 77.1369 39.2018 77.9343 39.8145C78.5751 38.874 79.0165 37.8195 79.2444 36.7222H75.8268C75.0436 37.9905 74.0611 39.1305 72.9077 40.0852L71.9251 39.2445C73.5769 37.8765 74.8585 36.1095 75.656 34.1145L76.9375 34.428C76.7951 34.7985 76.6385 35.1975 76.4676 35.5538H79.7855L80.7396 35.9955C80.2696 39.7005 77.8062 42.864 74.3174 44.2035L73.5342 43.1633H73.5485ZM79.2017 33.801L79.9564 33.4447C80.3408 33.9577 80.6541 34.5135 80.9104 35.0977L80.0703 35.4825C79.8567 34.884 79.5719 34.3282 79.2159 33.801H79.2017ZM80.8819 33.6727L81.6509 33.3165C82.0354 33.8437 82.3629 34.4137 82.6334 35.0122L81.7933 35.3685C81.5655 34.77 81.2664 34.2 80.8962 33.6727H80.8819Z" fill="white"/>
<path d="M86.7487 44.1607L86.0652 43.0777C88.9274 42.6217 90.978 40.0567 90.7786 37.164H85.1539V39.8572H83.8011V36.024H87.1617V34.0575H88.5145V36.024H91.0207L92.2595 36.3802C92.1029 40.185 90.8213 43.1062 86.7487 44.175V44.1607Z" fill="white"/>
<path d="M94.8654 36.1095L95.6201 35.0123C96.7878 35.5538 97.8985 36.2235 98.9238 37.0073L98.0694 38.1615C97.0868 37.3493 96.0188 36.6653 94.8796 36.1095H94.8654ZM95.1217 42.7215C98.4538 42.2228 101.33 40.1423 102.854 37.1355L103.737 38.133C102.085 41.2253 99.0804 43.377 95.6201 43.9613L95.1075 42.7073L95.1217 42.7215Z" fill="white"/>
<path d="M114.73 43.377H106.3V35.397H114.73V43.377ZM107.624 36.6225V42.1373H113.391V36.6225H107.624Z" fill="white"/>
<path d="M126.805 39.786H117.322V38.418H126.805V39.786Z" fill="white"/>
<path d="M130.023 34.086H131.348V37.5203C133.113 38.2613 134.822 39.1163 136.474 40.0853L135.719 41.268C134.324 40.3703 132.857 39.5865 131.348 38.9168V44.0895H130.023V34.086ZM133.17 34.8128L133.968 34.4423C134.352 35.0123 134.68 35.625 134.922 36.2663L134.053 36.651C133.84 36.0098 133.555 35.3828 133.185 34.8128H133.17ZM134.694 34.2285L135.506 33.858C135.919 34.428 136.246 35.0408 136.517 35.682L135.648 36.0668C135.406 35.4255 135.093 34.7985 134.708 34.2285H134.694Z" fill="white"/>
<path d="M35.2719 28.9275C35.3004 26.505 36.5678 24.282 38.6325 23.0138C37.3225 21.147 35.215 20.007 32.9508 19.9358C30.5586 19.6793 28.2375 21.3608 27.0271 21.3608C25.8167 21.3608 23.9086 19.95 21.8865 19.9928C19.2237 20.0783 16.8172 21.5603 15.5214 23.883C12.7731 28.6568 14.8236 35.6678 17.458 39.5295C18.7823 41.4248 20.3202 43.5338 22.3422 43.4483C24.3215 43.3628 25.062 42.1943 27.4401 42.1943C29.8181 42.1943 30.4874 43.4483 32.5521 43.4055C34.6739 43.377 36.0124 41.5103 37.2797 39.6008C38.2338 38.2613 38.96 36.765 39.4442 35.1975C36.9237 34.1288 35.2862 31.6635 35.2862 28.9275H35.2719Z" fill="white"/>
<path d="M31.3845 17.3993C32.5379 16.017 33.1075 14.2215 32.9651 12.426C31.1994 12.6113 29.5618 13.452 28.3941 14.7915C27.2407 16.1025 26.6569 17.8268 26.7708 19.5795C28.565 19.5938 30.2595 18.7958 31.3845 17.3993Z" fill="white"/>
</g>
<defs>
<clipPath id="clip0_547_5">
<rect width="155" height="57" fill="white"/>
</clipPath>
</defs>
</svg>
