<svg width="124" height="217" viewBox="0 0 124 217" fill="none" xmlns="http://www.w3.org/2000/svg">
<g clip-path="url(#clip0_897_3118)">
<path d="M123.669 157.063C121.466 145.141 113.018 139.81 101.615 137.661C119.167 127.646 117.992 103.999 118.79 86.2209C118.465 83.7486 119.571 81.9892 120.412 80.0153C122.286 75.5988 123.728 71.0635 123.931 66.2244C125.025 54.1302 113.084 46.1653 102.597 53.6417C101.399 54.2655 101.018 54.0213 101.152 52.6646C101.487 49.2549 101.32 45.8616 100.837 42.4849C100.709 41.5837 101.152 41.389 101.753 41.0589C104.757 39.7782 108.004 35.5333 105.217 32.5626C99.6126 27.1228 96.1751 20.4056 93.5715 13.157C92.0186 9.45673 90.7907 5.17555 86.6013 3.7859C72.2931 -2.32064 55.6111 -0.759346 41.9858 6.44637C38.174 8.49619 34.7267 11.226 34.3721 15.9462C33.4758 23.7658 31.6996 31.3941 28.551 38.6427C27.0374 42.2769 23.2223 46.8948 28.3737 49.2086C30.708 50.3969 31.079 51.8757 31.0462 54.1896C30.8919 61.6891 34.29 78.6752 23.6393 80.0813C21.5216 79.8437 21.584 83.0092 23.7082 82.7286C31.5387 82.59 34.2802 73.034 34.1324 66.5182C34.0503 58.0021 32.504 49.2912 35.0484 40.9731C49.4683 29.1132 74.5979 26.6046 92.7409 30.1926C97.3735 33.9918 98.0695 40.9698 98.6211 46.634C98.7426 48.6706 98.562 50.6874 98.539 52.7141C98.516 54.8795 96.9959 53.8133 96.116 53.9816C94.7502 54.2424 95.2 53.163 95.2131 52.493C95.4036 49.7566 94.1756 35.3518 90.7447 35.9756C89.7466 36.3189 89.6645 37.1672 90.0158 38.0122C91.0533 39.8244 94.7732 54.7904 91.1354 54.2424C86.9821 54.3216 82.8322 54.4669 78.6789 54.5527C75.596 54.6187 74.4042 55.6222 74.5421 58.682C75.0937 62.6727 68.7341 61.6066 64.0785 68.2941C62.4599 70.806 54.5999 65.1154 53.1192 63.4748C52.1277 62.4417 51.2248 62.5341 50.3646 63.5673C49.3566 64.6896 46.8056 70.4693 49.268 70.6839C49.9804 70.7862 50.5386 70.4297 50.9556 69.8653C51.7304 69.1127 51.3791 66.2475 53.0141 67.492C55.1482 69.1556 57.476 70.4726 60.0172 71.3935C60.7362 71.6543 60.9825 72.0834 60.5622 72.7766C60.1354 73.4797 59.9942 74.592 58.7236 74.1365C56.5731 73.8428 53.2045 70.0765 51.5203 72.2022C49.0349 76.2722 61.5669 76.5461 56.8719 80.0021C52.6497 83.293 27.5759 101.609 31.8145 106.455C34.0306 107.732 36.1746 102.365 37.7669 101.144C43.0135 95.1232 49.3402 90.271 55.5422 85.323C57.7649 82.887 58.5759 91.1127 66.5081 94.2815C71.469 97.5229 64.594 121.305 61.6785 125.946C54.7082 142.744 29.2766 142.86 23.5901 125.049C22.0076 120.299 21.7679 115.506 22.6543 110.581C24.621 96.0805 31.3647 82.1576 44.2545 74.5689C45.6926 73.5028 50.0165 71.8623 47.0945 69.9049C28.8399 76.3283 17.3224 101.358 19.4269 120.12C20.5991 124.907 18.8787 129.171 18.2154 133.644C17.7197 137.295 16.9317 140.566 14.6302 143.698C9.17351 151.416 4.21259 159.546 0.696281 168.398C-0.538208 172.072 -0.291969 173.115 2.80737 175.436C8.59566 179.773 14.7451 183.526 21.2623 186.662C21.7876 186.916 22.4967 186.929 22.4803 187.92C22.3621 194.422 24.795 200.242 27.4314 205.988C29.989 212.22 34.4476 216.954 41.4704 216.967C46.9238 216.861 54.4325 217.703 59.0355 214.504C59.3441 214.214 59.5805 213.927 60.1452 214.184C65.2703 216.531 70.7106 216.086 76.1115 215.917C83.0554 215.98 87.7307 212.811 86.5126 205.949C85.3143 196.274 77.1949 198.01 73.022 191.95C90.2719 187.929 112.486 186.494 121.991 169.26C122.004 169.237 122.04 169.148 122.096 169.012C123.534 165.52 124.102 161.727 123.767 157.964C123.728 157.509 123.692 157.176 123.672 157.06L123.669 157.063Z" fill="black"/>
<path d="M47.091 69.9084C48.0989 71.2353 48.0201 71.6941 46.5624 72.5788C40.3735 76.3318 34.8282 80.7978 30.6684 86.8416C25.169 95.0211 22.8642 104.755 21.7545 114.42C18.6945 136.697 48.1383 149.168 60.6243 128.604C66.3962 118.751 68.9834 106.99 68.33 95.6054C68.2381 94.8693 68.005 94.46 67.2827 94.1563C62.3152 92.2055 59.3209 88.3864 56.888 83.7917C48.6242 90.2877 40.0583 96.6154 33.9713 105.323C32.8451 107.508 30.3466 105.706 31.7912 103.821C38.4036 94.2817 47.9446 87.2575 57.1376 80.4116C58.0766 79.7383 58.2801 78.8668 58.6084 77.9822C59.531 76.8962 49.839 75.1633 51.7039 72.4434C52.3113 71.4697 53.1156 71.7535 53.9594 72.3081C55.4697 73.3049 57.1507 73.975 58.8054 74.6913C59.6229 75.0445 60.0005 74.8695 60.4142 74.0542C61.6257 71.6677 61.6684 71.7007 59.2224 70.6643C56.5926 69.5486 54.2122 68.0071 51.9764 66.1982C50.8371 67.7826 50.8404 72.2982 48.2007 69.4925C47.833 69.6311 47.4653 69.7697 47.0975 69.9084H47.091Z" fill="#00459E"/>
<path d="M40.3932 51.8098C40.3374 57.299 44.4578 60.4084 48.0201 61.8773C48.7753 62.1876 49.4614 62.006 49.7832 61.2072C50.4398 58.9792 46.6083 58.8273 45.5643 57.2957C41.6835 54.731 42.1563 45.4722 48.1383 48.1194C49.0839 48.6244 50.0065 49.146 50.5777 47.8322C51.126 46.5779 50.0721 46.0795 49.1857 45.6471C44.7566 43.4751 40.3932 46.5416 40.3932 51.813V51.8098Z" fill="#010101"/>
<path d="M59.1994 47.2713C65.1847 45.6242 70.1686 41.4321 73.3435 36.098C74.1413 34.5664 76.5183 29.7373 73.7736 29.2388C72.9429 29.1893 72.5883 29.7109 72.4077 30.5394C70.776 38.0025 65.2602 42.4488 58.4114 44.7164C56.8158 45.2413 57.4396 47.5321 59.1961 47.2713H59.1994Z" fill="#010101"/>
<path d="M81.7813 33.2229C81.5285 41.541 74.9621 43.8714 76.6792 45.6571C77.3917 46.5054 78.2322 46.1423 78.9446 45.4623C82.9173 41.6763 84.5326 36.966 84.3192 31.5493C84.2831 30.6449 83.7906 30.0937 82.8451 30.196C81.2527 30.4502 81.7747 31.8365 81.778 33.2262L81.7813 33.2229Z" fill="#010101"/>
<path d="M70.2671 50.8295C69.6269 54.3812 72.6015 54.807 72.8805 52.5822C72.897 51.4302 72.8838 50.2783 72.8871 49.1263C72.5949 46.8388 69.6269 47.3306 70.2671 50.8295Z" fill="#060606"/>
<path d="M80.3301 50.2387C80.445 51.3379 79.8344 53.2293 81.453 53.3514C82.3263 53.4306 82.8549 52.985 82.9173 52.1829C83.0092 50.9913 82.9994 49.7832 82.9271 48.585C82.8812 47.7829 82.3657 47.268 81.5186 47.3175C79.9591 47.3802 80.3859 49.1528 80.3301 50.2354V50.2387Z" fill="#040404"/>
<path d="M51.4412 188.365C66.4323 184.649 83.4459 183.031 95.7152 172.789C102.692 165.388 102.354 154.614 94.9863 146.877C86.7389 138.196 73.987 139.13 63.0375 139.662C62.1084 139.734 61.5962 140.094 61.084 140.82C57.2689 146.224 52.8694 151.079 47.6064 155.109C47.196 155.426 46.6839 155.654 46.7167 156.367C46.8119 158.364 45.9189 160.081 45.0817 161.807C42.0119 168.541 37.9177 174.845 34.5098 181.302C41.0991 180.608 47.393 178.578 53.7296 176.76C54.5077 176.548 55.3187 176.558 55.6175 177.529C56.389 180.902 35.0219 183.823 32.4906 184.028C33.4788 186.794 36.2531 188.006 38.9683 187.936C43.1249 188.114 47.2617 188.996 51.4445 188.369L51.4412 188.365Z" fill="#FEFEFE"/>
<path d="M82.474 79.3652C80.3859 100.015 74.3678 119.15 63.8123 136.945C70.5856 136.427 77.175 137.176 83.8825 136.78C84.9857 136.79 85.4716 136.522 85.3633 135.304C84.4505 125.194 83.7775 115.06 83.1011 104.93C83.0355 103.947 83.3277 103.039 84.3685 102.94C85.6391 102.821 85.8328 103.94 85.8459 104.877C86.0692 114.869 87.3069 124.801 87.934 134.773C87.9997 135.714 88.5217 135.813 89.1915 135.908C104.849 139.457 113.106 123.804 114.498 110.122C115.634 103.118 115.805 96.0311 116.173 88.9608C116.229 87.8781 116.015 87.6569 114.814 87.8088C94.9042 88.0299 108.178 71.605 91.5652 104.108C90.8528 105.607 88.5283 104.541 89.2539 103.075C89.7923 100.765 94.1524 94.5491 93.4892 92.9614C90.2913 88.0794 87.1789 82.9367 82.4773 79.3685L82.474 79.3652Z" fill="#00459E"/>
<path d="M31.2528 38.93C52.5969 26.6741 74.6928 22.5843 98.6471 28.8889C93.9521 23.3501 92.4057 16.6296 89.6216 10.5231C82.0735 -1.83853 52.2259 2.43934 41.6835 9.74078C38.8994 11.3021 37.2545 13.5334 36.8605 17.0224C36.0299 24.3767 34.408 31.5989 31.2495 38.93H31.2528Z" fill="#00459E"/>
<path d="M20.9501 142.398C19.4366 142.381 18.2841 142.9 17.5421 144.002C14.9944 148.461 -0.351315 169.352 3.77239 172.848C10.3388 177.704 17.1777 182.084 24.7422 185.213C27.1127 186.193 27.5132 186.107 29.0202 184.064C31.7748 179.862 48.2171 156.634 42.6127 153.683C37.1724 149.61 30.8096 146.831 24.821 143.642C23.5373 143.015 22.224 142.513 20.9468 142.398H20.9501Z" fill="#73C9FE"/>
<path d="M88.4265 75.5198C95.3311 75.3514 102.022 75.2227 108.7 74.6979C110.076 74.645 110.499 73.7802 110.312 72.4665C110.342 69.1161 110.253 69.0303 106.914 69.3142C105.64 69.2251 103.631 70.5454 103.25 68.654C101.874 65.2971 117.591 66.5415 116.15 69.2878C115.523 71.7667 112.568 68.2942 112.913 71.6611C113.261 76.8566 111.258 77.2494 106.507 77.5366C103.388 77.7874 103.345 77.8568 103.68 80.9364C103.726 81.3556 103.844 81.6626 104.166 81.9069C106.537 83.7355 113.077 87.175 115.372 84.2307C118.389 78.5895 120.881 72.7735 121.291 66.2675C122.345 57.5599 114.009 49.7502 105.539 55.0315C103.644 56.1406 101.789 56.573 99.6649 56.6159C92.6191 56.7545 85.5734 56.9955 78.5276 57.2001C77.1224 56.9955 76.0258 60.6726 77.9564 60.0752C79.6144 60.2171 83.9778 58.2498 84.2864 60.7188C84.3717 61.9963 83.3572 62.1217 82.3657 62.1811C79.1219 62.3759 76.0028 63.0723 73.0414 64.4587C65.6772 67.8057 62.5516 75.1732 59.7904 82.2436C59.7182 85.8448 64.4296 89.7662 67.4501 91.344C68.4088 91.8325 69.1738 91.7202 70.0143 91.1129C73.1038 88.8881 75.5169 86.0725 77.0305 82.5835C77.5164 79.6986 86.7783 70.7897 89.1718 73.0276C89.9499 74.0014 89.1521 74.6814 88.4199 75.5132L88.4265 75.5198Z" fill="#FEFEFE"/>
<path d="M88.5316 139.246C105.282 145.926 109.075 170.095 92.084 178.743C82.4773 184.031 71.8299 186.256 61.3598 189.055C74.6075 191.263 106.665 183.602 115.95 173.545C132.569 153.188 109.469 137.004 88.5316 139.249V139.246Z" fill="#FEFEFE"/>
<path d="M30.652 186.22C27.7693 190.524 24.3581 186.566 24.9753 189.636C25.7567 196.469 28.5474 202.866 31.8438 208.837C33.8071 212.346 36.8244 213.996 40.6198 214.29C45.0324 214.633 49.4319 214.326 53.8478 213.864C58.6085 213.366 59.2618 209.857 58.5165 206.394C57.9781 203.886 56.6943 201.882 54.3994 200.535C47.7607 197.053 49.0839 191.537 46.7068 191.914C40.866 192.231 34.2799 191.633 30.6487 186.22H30.652Z" fill="#00459E"/>
<path d="M71.541 213.435C74.4335 213.475 76.9878 213.306 79.5389 212.993C86.4861 212.402 84.7033 201.862 79.3287 199.578C77.0535 198.41 74.6305 197.472 72.7164 195.68C70.625 193.373 70.8712 192.472 67.2006 192.812C63.9042 193.102 60.6539 192.534 58.0273 190.161C57.6596 189.828 57.2361 189.801 56.7994 189.897C54.9378 190.31 53.0861 190.758 51.2245 191.151C50.4234 191.32 50.5121 191.742 50.6959 192.353C51.7728 197.096 57.0292 198.03 59.4227 201.81C64.991 211.574 54.6325 212.96 71.5475 213.435H71.541Z" fill="#00459E"/>
<path d="M56.0377 137.612C66.4586 140.266 78.6885 93.5589 79.1317 84.782C76.8466 88.0564 75.1624 90.872 71.9153 92.9878C70.9697 93.5853 70.8745 94.3016 70.9205 95.3215C71.344 110.538 68.1987 127.336 56.0377 137.612Z" fill="#00459E"/>
<path d="M58.3458 140.084C49.5041 141.035 41.0893 142.57 32.438 144.53C36.9295 147.353 41.7755 148.762 45.2951 152.647C47.4324 153.845 56.5597 142.49 58.3458 140.081V140.084Z" fill="#FEFEFE"/>
<path d="M95.2162 90.6045C97.255 86.825 98.4764 83.0687 100.745 79.7447C101.356 79.2925 101.132 78.6059 100.995 78.0943C100.87 77.3417 98.6044 77.9953 97.9248 77.8831C95.7776 77.8897 95.6922 78.9723 96.7264 80.6492C97.4323 81.4645 98.2564 82.4382 96.9792 83.2403C95.1603 84.3395 93.6402 81.0651 93.6041 79.6523C93.7223 77.9689 92.826 78.0118 91.6046 78.0745C89.7234 78.1735 87.8322 78.1009 85.9148 78.2957C89.3622 82.1444 92.3138 86.178 95.2194 90.6045H95.2162Z" fill="#FDFDFD"/>
<path d="M24.1709 133.482C24.2793 135.71 23.951 138.13 24.3055 140.289C28.2848 143.649 31.8142 142.233 36.5617 140.939C31.5089 139.605 27.5658 137.183 24.1709 133.486V133.482Z" fill="#00459E"/>
<path d="M97.3207 31.3479C98.5979 33.7707 99.4712 35.9328 100.059 38.2004C100.2 38.7484 100.469 38.7715 100.883 38.5239C106.707 35.0811 101.566 32.5626 97.324 31.3512L97.3207 31.3479Z" fill="#00449D"/>
<path d="M51.4412 188.365C46.1159 188.006 40.7905 187.646 35.4652 187.289C40.2521 190.187 46.2932 190.072 51.4412 188.365Z" fill="#01459C"/>
<path d="M31.8503 41.9899C30.235 42.8943 27.2473 44.4589 28.8922 46.2942C29.4667 46.8619 30.0938 47.7234 30.872 47.5056C31.6928 46.9378 31.5023 43.396 31.8503 41.9866V41.9899Z" fill="#00449C"/>
<path d="M21.6757 129.501C21.1208 132.548 20.5496 135.588 20.0242 138.641C19.9487 139.084 19.5843 139.764 20.5955 139.79C22.4177 140.411 21.2916 131.036 21.679 129.505L21.6757 129.501Z" fill="#F0F0F0"/>
<path d="M84.8478 63.4223C80.6519 64.1419 76.781 65.6504 73.327 68.1788C71.2783 69.4331 73.1038 72.1266 74.9292 70.3442C77.9629 68.1029 81.361 66.6901 85.0875 66.096C87.169 66.096 86.9819 62.9371 84.8478 63.4256V63.4223Z" fill="#010101"/>
<path d="M76.3969 74.4371C76.1933 75.6188 77.7561 76.2129 78.5605 75.4406C81.1509 73.2158 84.1157 71.6512 87.2708 70.4167C88.9879 69.9546 88.0063 67.1852 86.3844 67.9147C83.5805 69.1426 77.4606 71.5291 76.3969 74.4371Z" fill="#020202"/>
<path d="M103.217 63.9932C103.454 66.7989 108.28 62.6893 114.535 64.4685C116.245 64.9867 116.912 62.1381 115.129 61.8806C112.686 61.3327 103.513 60.6164 103.217 63.9932Z" fill="#020202"/>
<path d="M111.544 56.3089C109.59 56.3849 102.147 57.078 103.401 60.1313C103.923 61.039 104.688 60.8542 105.522 60.4086C108.014 59.0783 110.687 58.7053 113.464 59.1146C116.081 59.4942 116.524 55.8699 111.54 56.3089H111.544Z" fill="#020202"/>
<path d="M46.2669 212.032C48.2138 211.91 57.653 211.884 56.9176 208.986C56.5269 207.672 55.4434 208.118 54.4486 208.385C49.3465 209.765 44.205 209.791 39.057 208.665C37.7897 208.52 36.0725 206.494 35.1762 208.226C34.779 209.029 35.0942 209.689 35.9084 210.134C39.0734 211.785 42.7637 212.019 46.2702 212.032H46.2669Z" fill="#000001"/>
<path d="M71.9875 210.996C74.1643 210.646 82.9468 210.907 82.2672 207.616C81.9455 206.843 81.3216 206.685 80.5041 206.982C76.6299 208.398 72.6441 208.652 68.5795 208.085C67.089 208.263 64.8334 206.054 64.029 207.989C63.3691 211.032 70.0668 210.629 71.9875 210.996Z" fill="#000001"/>
</g>
<defs>
<clipPath id="clip0_897_3118">
<rect width="124" height="217" fill="white" transform="matrix(-1 0 0 1 124 0)"/>
</clipPath>
</defs>
</svg>
