<svg width="69" height="219" viewBox="0 0 69 219" fill="none" xmlns="http://www.w3.org/2000/svg">
<g clip-path="url(#clip0_898_3323)">
<path d="M56.9242 89.1541C57.7322 89.3191 57.9896 89.8472 58.0252 90.6395C59.0496 110.844 60.6409 131.018 62.3884 151.169C62.5363 152.68 62.2597 153.667 60.6245 153.92C58.0033 154.822 56.894 154.674 57.1926 157.752C57.3131 166.18 57.3679 174.608 57.535 183.034C57.6089 186.877 57.8883 190.714 58.0554 194.554C59.4276 197.544 60.5533 199.979 58.4416 202.922C53.5279 209.334 46.9872 218.507 38.2937 218.904C33.9032 219.17 28.8553 219.069 25.0563 216.62C22.9774 214.398 17.9925 217.388 12.2626 214.45C6.05064 212.049 7.55707 203.367 12.216 200.069C14.4565 198.325 16.9517 196.994 19.3921 195.575C21.7997 194.174 24.1716 192.719 26.2122 190.794C26.749 190.288 27.3269 190.065 27.8638 190.667C28.9456 192.106 25.9465 193.333 25.1001 194.428C28.2554 194.851 31.2217 195.448 33.7197 197.382C34.1962 197.8 34.6345 197.363 35.0316 197.071C40.1425 193.443 40.2959 193.426 39.6358 187.24C38.6334 177.827 37.3104 168.43 36.1354 159.048C36.0998 157.964 35.7355 157.573 34.5934 157.576C31.723 157.576 28.8553 157.334 26.0122 156.918C25.259 156.808 24.9659 156.833 25.1111 157.752C25.9876 160.53 26.5956 174.152 28.4773 174.507C30.7314 175.379 33.0157 175.86 35.4233 175.288C36.119 175.123 36.8859 174.969 37.105 175.885C37.3296 178.693 29.7345 177.205 27.9843 176.542C28.4581 179.763 28.9128 182.863 29.3729 185.964C29.362 187.111 30.526 189.017 28.9977 189.526C28.0582 189.732 27.8199 189.042 27.7104 188.315C26.1985 178.041 24.577 167.784 23.0788 157.51C22.95 156.621 22.5639 156.407 21.8134 156.28C17.7652 155.598 13.8074 154.578 10.0002 153.001C6.65047 153.15 10.9726 125.28 10.8794 121.148C10.9589 120.4 10.7315 120.149 10.003 119.965C5.55488 118.84 4.11145 115.919 5.88904 111.696C8.07473 106.781 9.84958 101.384 13.6458 97.5576C14.2757 93.3104 14.9139 89.066 15.5959 84.5301C13.4185 87.0772 9.53734 87.1955 7.50502 84.7061C6.27523 82.9429 4.67841 81.551 3.24593 79.9913C-3.42071 72.1077 2.13939 59.5149 2.82961 50.2366C3.33632 48.9988 2.78031 45.0102 4.66198 45.3678C5.5001 45.5411 5.49736 46.2288 5.38781 46.8972C4.82084 50.4209 4.23744 53.9391 3.67869 57.4628C3.02682 64.8513 -1.24049 75.2793 6.66416 80.1041C9.83315 81.9224 15.4809 80.58 15.6041 76.3549C15.5576 65.6765 14.0484 55.0862 13.0953 44.4683C12.8789 42.4383 13.7471 40.8374 14.8345 39.2144C14.1662 38.8843 13.5992 38.5845 12.8624 38.8486C10.1426 39.5363 8.68826 36.0181 6.71073 34.6977C6.1958 34.2191 5.74113 33.7487 6.29166 33.0885C7.96243 31.3941 10.4494 36.4224 12.1476 36.9478C12.794 35.0828 9.3237 31.6856 8.01995 30.4176C7.43929 29.9169 6.9764 29.386 7.57076 28.7011C9.12101 27.1497 12.0736 32.0818 13.2459 33.4736C13.7773 27.444 7.68306 26.3987 9.07993 24.707C9.66607 23.9066 10.3946 24.3907 10.9945 24.8418C13.4294 26.495 14.5633 29.0009 15.3659 31.7214C16.1519 28.6323 14.7989 25.1444 12.1311 23.4554C11.5751 23.1033 11.0136 22.8338 11.167 22.0113C11.3177 21.2163 11.986 21.2438 12.5338 21.1173C15.2316 20.1876 17.2475 21.9095 19.6523 22.7733C19.8742 21.6345 19.1319 21.0348 18.4171 20.5122C15.6808 18.5344 12.5803 19.0075 9.69894 20.1876C9.05528 20.5314 8.45819 20.6002 8.10212 19.8162C7.7351 19.0047 8.32671 18.6141 8.91011 18.3446C12.4845 16.7436 16.9243 16.5621 20.0878 19.2111C20.6329 17.7477 21.3395 16.4466 22.2023 15.0134C19.9016 14.5843 17.7214 14.2212 15.5631 13.7618C11.5888 13.1594 12.1503 8.67298 15.4261 8.0128C18.6827 7.01978 22.0462 6.78047 25.4151 6.65944C26.6175 6.61542 27.5241 6.28259 28.4636 5.47387C39.6605 -4.31326 59.644 -0.635519 64.9329 13.7756C66.6995 15.4425 67.1131 32.9675 63.3553 29.9802C59.14 24.8831 53.1389 24.4512 47.0146 25.0949C47.5843 27.4165 51.69 29.6749 50.3315 30.7559C49.6878 31.4518 49.0579 30.9842 48.5457 30.5166C44.1852 26.6793 46.3463 24.3962 40.2685 22.0278C39.9508 23.7085 42.6131 26.0274 41.0738 26.9296C40.3726 27.2982 39.8851 26.8966 39.5372 26.2447C37.2776 22.5092 39.8412 21.0128 34.7961 19.3651C34.7221 20.691 35.1384 21.8215 35.6041 22.93C35.8862 23.6012 36.1847 24.3109 35.3576 24.7098C33.3143 25.502 32.835 20.5342 32.7035 19.1945C32.6925 17.5138 26.8503 16.4851 25.3466 15.8084C23.5143 15.0189 21.9503 19.6952 21.8243 21.0128C24.2018 22.0361 24.892 19.819 26.2231 18.5729C26.6504 18.1713 27.1352 18.1438 27.5762 18.5344C28.6909 19.6732 26.6997 20.8367 26.1519 21.7472C26.2341 21.8848 26.2669 22.0003 26.3135 22.0058C28.858 22.3414 30.893 23.4774 32.446 25.5928C33.3828 26.8691 35.0672 26.7288 36.4148 27.2047C40.9807 29.155 38.6635 34.1393 37.6939 37.6272C37.2776 39.8251 39.9837 41.7286 40.5369 43.9044C41.4983 45.6346 39.2332 46.5726 38.6799 44.6526C37.9431 42.8894 32.2187 33.5672 30.4849 34.1723C30.0138 34.5382 30.4356 35.1901 30.6657 35.6797C31.1724 37.0496 34.0949 40.9749 30.7862 40.455C27.6282 39.7866 24.4181 39.341 21.3368 38.3204C21.0081 38.2104 20.5507 37.729 20.2878 38.3259C20.4576 40.2294 27.2201 42.0202 29.036 42.2622C29.6906 42.3805 30.1973 42.6886 30.0467 43.4451C29.3948 45.7804 22.583 42.353 20.9451 41.7368C22.9144 45.233 30.1782 45.7804 29.2634 47.6537C28.6252 49.3756 25.5028 46.9963 23.9525 46.6799C25.8944 48.831 28.0281 50.0468 30.2932 51.0784C31.5641 51.656 31.6298 52.1429 30.6274 53.1607C29.1648 53.9144 27.0174 52.0219 25.7328 51.3012C23.3883 49.4609 19.8769 54.0491 17.9843 55.353C17.0421 56.2167 16.7107 57.2262 16.875 58.5549C17.2064 62.9505 18.0418 67.4122 17.7378 71.8134C18.376 69.8549 19.4168 58.6044 22.0708 59.7899C23.0459 60.0568 23.0322 61.2066 22.7939 62.0015C20.1563 71.9179 18.5677 82.0517 16.7792 92.1359C20.4768 86.2025 24.6153 80.4452 29.0935 75.0593C31.1423 72.5891 29.1018 62.5407 29.7043 58.4476C29.7536 57.1107 28.8553 54.0601 30.6411 53.642C31.7695 53.6118 31.9695 54.2995 31.9695 55.254C32.0845 64.1994 32.0845 73.2245 33.4485 82.0792C34.7249 88.1803 43.3115 89.2641 47.9048 85.8174C49.2907 84.7776 48.2115 82.5385 48.3704 81.0339C47.8555 79.3752 50.2931 78.3051 50.6245 80.415C51.3559 83.394 50.9751 85.9522 50.3698 89.022C58.1485 84.3128 59.3536 74.9768 59.3208 66.686C59.3208 65.8993 59.2934 64.9448 60.5204 64.9448C60.9532 65.2887 61.564 65.4097 61.5831 66.1936C62.0077 74.146 60.4739 82.302 55.4177 88.6342C51.3668 92.3312 43.128 97.8739 39.1209 91.4482C38.4416 90.3451 37.6145 89.5942 36.4422 89.0413C32.1091 87.1928 30.8903 83.1272 30.4576 78.715C25.4042 84.8822 21.1697 91.2144 17.1955 98.0472C15.7356 100.537 15.2399 103.21 14.8975 106.008C14.0895 112.643 13.3746 119.291 12.7775 125.945C11.9887 133.589 11.7395 141.281 11.1369 148.939C10.8959 150.529 11.0931 150.839 12.605 151.403C24.021 155.348 36.3819 155.859 48.2882 154.429C51.8187 153.992 55.2698 153.076 58.6826 152.036C59.7097 151.722 59.9863 151.172 59.8823 150.116C58.3813 133.441 57.2391 116.736 56.0915 100.033C56.2285 98.325 54.4591 88.5241 56.9324 89.1541H56.9242Z" fill="black"/>
<path d="M56.9239 89.1542C56.1214 89.4182 56.0091 90.0041 56.0365 90.7771C56.6664 105.774 58.0085 120.73 59.1123 135.699C59.4985 140.719 59.8793 145.74 60.323 150.754C60.3969 151.588 60.2381 151.932 59.4109 152.207C44.6177 156.902 28.3236 156.718 13.5305 152.127C9.92875 150.938 10.5943 151.728 10.7915 148.036C11.5502 132.536 13.1607 117.107 15.0588 101.711C18.8742 92.9282 24.7739 85.3114 30.7805 77.6423C31.1119 82.6487 32.3472 87.4047 37.4882 89.0992C38.1757 89.3715 38.5865 89.7153 38.9097 90.3975C42.3882 98.1601 52.8702 91.341 56.6391 86.6868C56.7349 87.5092 56.828 88.3317 56.9239 89.1542Z" fill="#D3B784"/>
<path d="M30.6353 53.6449C29.8328 54.0162 29.9396 54.7562 29.9506 55.4301C30.0437 61.1517 30.1204 66.8732 30.4819 72.5837C30.5367 73.442 30.4052 74.1159 29.8109 74.8118C24.8588 80.6021 20.6984 86.7775 16.3379 93.074C17.8526 82.5001 19.8356 71.9923 22.4732 61.6385C22.6649 60.9068 22.8101 60.2274 21.8706 60.0019C20.9476 59.779 20.6901 60.4805 20.5258 61.1792C19.4193 64.9724 19.0632 69.2416 17.5787 72.812C17.4308 68.6447 17.0227 64.5956 16.6693 60.541C15.9079 57.6307 16.6584 55.4989 19.0824 53.8127C26.6008 47.5933 23.2374 51.2105 30.6271 53.1608C30.6326 53.3203 30.6353 53.4826 30.6408 53.6421L30.6353 53.6449Z" fill="#D3B784"/>
<path d="M60.5147 64.9449C59.6903 65.2585 59.567 65.8774 59.5944 66.7026C60.0354 75.3509 58.0469 85.5672 49.6876 89.8583C50.312 88.0924 51.8705 78.5968 48.7317 79.5183C48.7317 78.1842 49.3589 77.0151 48.8275 75.6563C47.7593 71.3459 46.6309 67.0547 45.5106 62.7581C45.1957 61.5532 45.4175 60.6785 46.3214 59.8148C48.3345 57.8893 50.249 55.862 52.243 53.9144C53.4865 52.7014 54.0206 52.7619 55.1326 54.1015C57.1403 56.5221 58.759 59.1518 59.4465 62.2684C59.5971 62.9561 60.1011 63.344 60.4763 63.8501C60.4873 64.2132 60.501 64.5791 60.5119 64.9422L60.5147 64.9449Z" fill="#D3B784"/>
<path d="M60.4791 63.8529C59.5588 63.8199 59.2822 63.201 59.1178 62.4197C58.4139 59.1024 56.7158 56.3406 54.4424 53.8787C53.8179 53.2048 53.4536 53.246 52.8346 53.8732C50.6572 56.0875 48.455 58.2744 46.1954 60.4035C45.5517 61.0114 45.5353 61.5643 45.7325 62.3235C46.976 67.096 48.1866 71.8768 49.4164 76.6521C49.6355 77.5048 49.7423 78.2998 48.7152 78.7151C47.9867 78.5941 47.7046 78.1347 47.5293 77.425C45.1929 67.8002 42.6347 58.2331 40.0519 48.6743C39.8602 47.9646 39.7287 47.2412 40.6517 47.0074C41.5528 46.779 41.7309 47.497 42.0294 48.1544C42.3225 48.7953 41.8048 50.1267 43.3304 49.8681C46.0995 49.4473 46.1461 47.4667 46.0146 45.3102C44.6835 45.3954 42.2157 47.1036 41.6158 45.3679C41.4679 44.5509 41.9993 44.2649 42.7059 44.0998C48.8549 42.6474 52.0623 38.8239 52.3964 32.5467C52.4375 31.7848 52.432 30.9486 53.4372 30.9458C54.3411 30.9458 54.4753 31.6858 54.4068 32.434C54.3657 32.8851 54.5246 33.0804 54.9902 33.1381C57.8387 33.4985 58.6193 36.6838 57.5265 38.9312C54.7683 44.6335 51.1474 41.1015 48.0853 44.3446C47.773 48.2865 49.0357 50.5833 44.2945 52.0412C43.8645 52.1595 43.4564 52.3218 43.6071 52.8554C44.0234 54.3271 44.3384 55.8317 44.8314 57.4051C46.9212 55.7822 48.592 53.9942 50.3203 52.2668C51.0653 51.5213 50.5421 51.1995 49.9094 50.8639C49.1672 50.4733 48.2058 50.212 48.6385 49.0044C48.9891 48.3167 49.5205 48.1187 50.2135 48.4515C56.1871 51.326 59.7204 56.1288 61.2186 62.5325C61.3693 63.1817 60.9255 63.5283 60.4764 63.8556L60.4791 63.8529Z" fill="black"/>
<path d="M67.0937 61.3084C67.3046 65.5281 63.3167 71.3101 68.1728 74.2066C68.8165 74.5697 69.241 75.0401 68.8521 75.7388C68.4057 76.542 67.7045 76.2972 67.0772 75.9121C65.1162 74.71 64.0315 72.9358 63.7795 70.6582C63.911 63.3302 67.521 60.585 62.1499 53.1085C59.3369 49.1997 60.2545 44.0696 61.6404 39.7894C62.5251 37.2917 63.3906 34.7748 63.2235 32.0543C63.0674 30.6405 65.1901 30.5442 65.1956 31.9691C65.6557 38.7496 59.5561 45.6155 63.8699 52.11C65.6941 54.8607 67.2799 57.7572 67.0937 61.3112V61.3084Z" fill="black"/>
<path d="M6.76797 20.0364C7.76769 20.0666 7.86082 21.2825 7.30755 21.9536C5.66143 24.8474 4.66718 27.964 4.25634 31.2621C3.34153 33.6938 7.55405 43.4011 5.08077 43.5304C4.22895 43.6542 4.03996 43.0821 3.91123 42.3641C3.51134 40.114 3.11145 37.8639 2.60474 35.6386C1.42973 30.624 3.22101 25.4828 5.49161 21.0431C5.75455 20.57 6.0038 20.0419 6.76523 20.0391L6.76797 20.0364Z" fill="#010101"/>
<path d="M48.6385 48.9989C48.5098 50.146 49.4712 50.2615 50.1696 50.6191C51.7336 51.414 51.6815 51.359 50.5093 52.5749C48.6769 54.4784 46.9294 56.4617 45.1464 58.4092C44.9848 58.3019 44.8204 58.1946 44.6588 58.0846C44.174 56.2581 43.7057 54.4289 43.1962 52.6106C43.0346 52.0275 43.2976 51.8679 43.7824 51.8129C45.9434 51.3343 48.3373 49.9479 47.9785 47.3127C47.8552 46.3444 47.7785 45.3157 48.088 44.3336C48.2825 45.1836 47.7703 49.0292 48.6413 48.9961L48.6385 48.9989Z" fill="#D3B784"/>
<path d="M40.1505 31.5867C40.5969 30.9018 40.1505 29.4852 41.6405 29.4631C42.306 29.4521 42.6676 30.0023 42.4704 30.5799C42.1773 31.4354 42.4841 32.775 41.068 32.8851C40.3367 32.9428 40.082 32.3734 40.1505 31.5867Z" fill="#040404"/>
<path d="M50.9666 204.383C47.6826 200.281 43.073 198.526 37.8881 197.572C39.8766 195.575 42.5279 194.04 42.0267 190.876C41.5528 186.981 41.2159 183.073 40.8188 179.098C42.7361 180.118 54.3794 180.052 53.5495 176.914C53.229 176.171 52.5936 176.199 51.9308 176.518C49.5725 177.673 47.0417 177.865 44.4671 177.72C41.016 177.522 40.5969 177.203 40.1149 173.852C37.5266 150.49 33.8563 160.671 54.2096 155.73C55.1271 155.507 55.2449 155.843 55.2504 156.674C55.2778 162.992 55.3243 169.311 55.4229 175.626C55.5051 181.07 55.5106 186.514 56.0392 191.944C56.5267 196.942 55.3106 201.31 50.9694 204.385L50.9666 204.383Z" fill="#FEFEFE"/>
<path d="M36.609 214.326C32.1281 214.043 25.4696 214.302 24.5658 209.887C24.2946 208.049 25.8339 205.618 27.6855 205.645C32.1089 205.838 36.3077 206.844 40.1286 209.166C41.027 209.917 44.4589 211.889 42.3198 212.888C40.1779 214.09 37.8525 214.343 36.6063 214.326H36.609Z" fill="#FEFEFE"/>
<path d="M24.6452 204.85C21.2105 207.983 23.4675 210.927 21.9062 210.88C3.96055 212.156 9.39739 195.621 24.6452 204.85Z" fill="#FEFEFE"/>
<path d="M14.5549 22.9797C15.7545 22.9852 16.3708 23.4225 16.9487 23.8104C18.3702 24.6851 20.8024 25.4553 22.1528 24.2835C23.1141 22.3498 25.0205 24.1157 26.5187 24.1377C29.9643 24.5063 27.1596 26.7592 29.5014 27.2873C31.205 27.7825 32.9114 28.2666 34.6041 28.792C34.8424 28.8663 35.3573 28.7837 35.2204 29.3119C35.0944 29.796 34.7109 29.598 34.4343 29.5017C31.6268 28.5279 28.54 28.3821 26.0257 26.5116C25.0643 25.7964 23.8208 25.5379 22.6293 25.7139C20.2957 26.0578 18.3155 24.8447 16.1763 24.3578C15.6559 24.2395 15.2533 23.5958 14.5549 22.9824V22.9797Z" fill="#BEBEBE"/>
<path d="M15.9079 52.2035C15.8696 47.7858 13.6126 43.4479 16.7269 40.0617C17.1623 39.4676 17.3486 40.2763 17.4061 40.5789C18.2552 44.6472 17.8882 48.424 15.9079 52.2007V52.2035Z" fill="#FCFCFC"/>
<path d="M23.021 36.406C17.1623 36.2822 17.2034 27.5569 23.0402 27.4166C28.8769 27.5514 28.8988 36.3262 23.021 36.406Z" fill="#BBBBBB"/>
<path d="M47.9867 88.1254C47.0472 92.1607 42.8785 93.5774 40.9859 89.7758C43.4318 89.8886 45.6585 89.2917 47.9867 88.1254Z" fill="#D0B583"/>
<path d="M18.436 51.6341C19.4658 49.0402 19.8931 46.5728 19.9862 43.9678C20.5587 45.742 21.594 47.1834 22.8046 48.5093C21.3776 49.5298 20.0246 50.4981 18.436 51.6341Z" fill="#FBFBFB"/>
<path d="M8.69894 82.8385C10.8655 82.9485 12.7636 82.6102 14.522 81.6089C14.2892 84.5769 10.6107 85.6882 8.69894 82.8385Z" fill="#CFB482"/>
<path d="M37.1404 30.6432C37.2746 32.6348 36.3844 34.4117 35.7873 36.2492C35.7271 34.2714 36.4693 32.4642 37.1404 30.6432Z" fill="#ADADAD"/>
<path d="M51.8952 40.6724C52.8675 39.088 53.6344 37.4513 54.0069 35.6496C54.0535 35.4185 54.0699 35.0389 54.4506 35.0912C58.088 35.9576 54.6944 40.9035 51.8952 40.6724Z" fill="#FBFBFB"/>
<path d="M22.969 28.1181C27.9128 28.0905 27.984 35.6138 23.095 35.7541C18.2059 35.8064 18.0498 28.2143 22.969 28.1181Z" fill="#010101"/>
<path d="M25.1053 31.9086C25.1053 34.5603 20.8928 34.6153 21.0024 31.8618C21.1421 29.1606 24.9657 29.2871 25.1053 31.9086Z" fill="#FBFBFB"/>
</g>
<defs>
<clipPath id="clip0_898_3323">
<rect width="69" height="219" fill="white"/>
</clipPath>
</defs>
</svg>
