<svg width="133" height="119" viewBox="0 0 133 119" fill="none" xmlns="http://www.w3.org/2000/svg">
<path d="M96.9261 3.06637C99.4182 3.06637 100.824 5.92876 99.3 7.9007L19.4046 111.296C17.6519 113.565 14.0208 112.318 14.0308 109.452L14.3912 6.05606C14.397 4.4033 15.7384 3.06652 17.3912 3.06652L96.9261 3.06637Z" fill="white"/>
<path d="M54.7675 82.8452C50.2197 82.8452 46.346 81.6076 43.1464 79.1325C39.9468 76.6372 37.5019 73.0251 35.8116 68.2962C34.1212 63.5471 33.276 57.812 33.276 51.0909C33.276 44.41 34.1212 38.7051 35.8116 33.9762C37.522 29.2272 39.977 25.605 43.1766 23.1097C46.3963 20.5943 50.2599 19.3366 54.7675 19.3366C59.2751 19.3366 63.1287 20.5943 66.3282 23.1097C69.5479 25.605 72.003 29.2272 73.6933 33.9762C75.4038 38.7051 76.259 44.41 76.259 51.0909C76.259 57.812 75.4138 63.5471 73.7235 68.2962C72.0331 73.0251 69.5882 76.6372 66.3886 79.1325C63.189 81.6076 59.3153 82.8452 54.7675 82.8452ZM54.7675 76.2045C59.2751 76.2045 62.7765 74.0312 65.2718 69.6847C67.767 65.3381 69.0147 59.1402 69.0147 51.0909C69.0147 45.7382 68.4412 41.1803 67.2942 37.4173C66.1673 33.6542 64.5373 30.7867 62.4042 28.8146C60.2913 26.8426 57.7457 25.8565 54.7675 25.8565C50.3002 25.8565 46.8088 28.06 44.2934 32.467C41.7781 36.8538 40.5204 43.0618 40.5204 51.0909C40.5204 56.4437 41.0838 60.9915 42.2107 64.7344C43.3376 68.4773 44.9575 71.3247 47.0704 73.2766C49.2035 75.2286 51.7692 76.2045 54.7675 76.2045ZM87.7292 82V76.5668L108.134 54.2301C110.529 51.6141 112.501 49.3402 114.05 47.4084C115.6 45.4564 116.747 43.6252 117.491 41.9148C118.256 40.1842 118.638 38.3731 118.638 36.4815C118.638 34.3082 118.115 32.4267 117.069 30.837C116.042 29.2473 114.634 28.0198 112.843 27.1545C111.052 26.2892 109.04 25.8565 106.806 25.8565C104.431 25.8565 102.359 26.3495 100.588 27.3356C98.8371 28.3015 97.4788 29.6598 96.5129 31.4105C95.5671 33.1612 95.0942 35.2138 95.0942 37.5682H87.9706C87.9706 33.946 88.8058 30.7666 90.476 28.0298C92.1462 25.2931 94.4201 23.16 97.2977 21.6307C100.195 20.1013 103.445 19.3366 107.047 19.3366C110.67 19.3366 113.879 20.1013 116.676 21.6307C119.473 23.16 121.667 25.2227 123.257 27.8185C124.846 30.4144 125.641 33.3021 125.641 36.4815C125.641 38.7554 125.229 40.979 124.404 43.1523C123.599 45.3055 122.19 47.7102 120.178 50.3665C118.185 53.0026 115.419 56.2223 111.877 60.0256L97.9919 74.8764V75.3594H126.728V82H87.7292Z" fill="#DEA231"/>
<path d="M6 10.4457L23.4545 10.4457L23.4545 16.3434C23.4545 17.7127 23.2074 18.832 22.7131 19.7013C22.2244 20.5763 21.5625 21.2241 20.7273 21.6445C19.892 22.065 18.9602 22.2752 17.9318 22.2752C16.9034 22.2752 15.9687 22.065 15.1278 21.6445C14.2869 21.2298 13.6165 20.5877 13.1165 19.7184C12.6222 18.8491 12.375 17.7354 12.375 16.3775L12.375 12.1502L14.25 12.1502L14.25 16.3093C14.25 17.2468 14.4119 17.9996 14.7358 18.5678C15.0597 19.136 15.4972 19.5479 16.0483 19.8036C16.6051 20.065 17.233 20.1957 17.9318 20.1957C18.6307 20.1957 19.2557 20.065 19.8068 19.8036C20.358 19.5479 20.7898 19.1332 21.1023 18.5593C21.4205 17.9854 21.5795 17.2241 21.5795 16.2752L21.5795 12.5593L6 12.5593L6 10.4457ZM14.7273 40.4073C12.8864 40.4073 11.2955 40.0749 9.95454 39.4102C8.61364 38.7454 7.57954 37.8335 6.85227 36.6744C6.125 35.5153 5.76136 34.1914 5.76136 32.7028C5.76136 31.2141 6.125 29.8903 6.85227 28.7312C7.57954 27.5721 8.61364 26.6602 9.95454 25.9954C11.2955 25.3306 12.8864 24.9982 14.7273 24.9982C16.5682 24.9982 18.1591 25.3306 19.5 25.9954C20.8409 26.6602 21.875 27.5721 22.6023 28.7312C23.3295 29.8903 23.6932 31.2141 23.6932 32.7028C23.6932 34.1914 23.3295 35.5153 22.6023 36.6744C21.875 37.8335 20.8409 38.7454 19.5 39.4102C18.1591 40.0749 16.5682 40.4073 14.7273 40.4073ZM14.7273 38.3619C16.2386 38.3619 17.5142 38.109 18.554 37.6033C19.5937 37.1033 20.3807 36.4244 20.9148 35.5664C21.4489 34.7141 21.7159 33.7596 21.7159 32.7028C21.7159 31.646 21.4489 30.6886 20.9148 29.8306C20.3807 28.9783 19.5937 28.2994 18.554 27.7937C17.5142 27.2937 16.2386 27.0437 14.7273 27.0437C13.2159 27.0437 11.9403 27.2937 10.9006 27.7937C9.86079 28.2994 9.07386 28.9783 8.53977 29.8306C8.00568 30.6886 7.73864 31.646 7.73864 32.7028C7.73864 33.7596 8.00568 34.7141 8.53977 35.5664C9.07386 36.4244 9.86079 37.1033 10.9006 37.6033C11.9403 38.109 13.2159 38.3619 14.7273 38.3619ZM23.4545 46.0749L6 46.0749L6 43.9613L23.4545 43.9613L23.4545 46.0749ZM23.4545 64.1538L6 64.1538L6 62.1083L19.7045 52.5969L19.7045 52.4265L6 52.4265L6 50.3129L23.4545 50.3129L23.4545 52.3583L9.71591 61.9038L9.71591 62.0742L23.4545 62.0742L23.4545 64.1538ZM21.5795 67.4286L23.4545 67.4286L23.4545 80.5195L21.5795 80.5195L21.5795 75.0309L6 75.0309L6 72.9173L21.5795 72.9173L21.5795 67.4286Z" fill="#DEA231"/>
</svg>
