<svg width="134" height="119" viewBox="0 0 134 119" fill="none" xmlns="http://www.w3.org/2000/svg">
<path d="M96.9261 3.06637C99.4182 3.06637 100.824 5.92876 99.3 7.9007L19.4046 111.296C17.6519 113.565 14.0208 112.318 14.0308 109.452L14.3912 6.05606C14.397 4.4033 15.7384 3.06652 17.3912 3.06652L96.9261 3.06637Z" fill="#FAF1E0"/>
<path d="M52.9394 82.8452C48.3916 82.8452 44.5179 81.6076 41.3183 79.1325C38.1187 76.6372 35.6738 73.0251 33.9834 68.2962C32.2931 63.5471 31.4479 57.812 31.4479 51.0909C31.4479 44.41 32.2931 38.7051 33.9834 33.9762C35.6939 29.2272 38.1489 25.605 41.3485 23.1097C44.5682 20.5943 48.4318 19.3366 52.9394 19.3366C57.447 19.3366 61.3005 20.5943 64.5001 23.1097C67.7198 25.605 70.1748 29.2272 71.8652 33.9762C73.5756 38.7051 74.4309 44.41 74.4309 51.0909C74.4309 57.812 73.5857 63.5471 71.8954 68.2962C70.205 73.0251 67.7601 76.6372 64.5605 79.1325C61.3609 81.6076 57.4872 82.8452 52.9394 82.8452ZM52.9394 76.2045C57.447 76.2045 60.9484 74.0312 63.4437 69.6847C65.9389 65.3381 67.1866 59.1402 67.1866 51.0909C67.1866 45.7382 66.613 41.1803 65.466 37.4173C64.3391 33.6542 62.7092 30.7867 60.5761 28.8146C58.4632 26.8426 55.9176 25.8565 52.9394 25.8565C48.4721 25.8565 44.9807 28.06 42.4653 32.467C39.9499 36.8538 38.6922 43.0618 38.6922 51.0909C38.6922 56.4437 39.2557 60.9915 40.3826 64.7344C41.5095 68.4773 43.1294 71.3247 45.2423 73.2766C47.3754 75.2286 49.941 76.2045 52.9394 76.2045ZM106.789 82.8452C102.804 82.8452 99.2527 82.161 96.1336 80.7926C93.0347 79.4242 90.5696 77.5226 88.7384 75.0877C86.9273 72.6327 85.9413 69.7853 85.7803 66.5455H93.3868C93.5478 68.5376 94.232 70.2582 95.4394 71.707C96.6468 73.1358 98.2264 74.2425 100.178 75.0273C102.13 75.8121 104.294 76.2045 106.668 76.2045C109.324 76.2045 111.679 75.7417 113.731 74.8161C115.784 73.8904 117.394 72.6025 118.561 70.9524C119.728 69.3023 120.312 67.3906 120.312 65.2173C120.312 62.9434 119.748 60.9412 118.621 59.2106C117.494 57.4599 115.844 56.0915 113.671 55.1055C111.498 54.1194 108.841 53.6264 105.702 53.6264H100.752V46.9858H105.702C108.157 46.9858 110.31 46.5431 112.162 45.6577C114.033 44.7723 115.492 43.5246 116.538 41.9148C117.605 40.3049 118.138 38.4134 118.138 36.2401C118.138 34.1473 117.675 32.3261 116.75 30.7766C115.824 29.2272 114.516 28.0198 112.826 27.1545C111.156 26.2892 109.183 25.8565 106.91 25.8565C104.777 25.8565 102.764 26.2489 100.873 27.0337C99.0012 27.7984 97.4718 28.9152 96.2846 30.3842C95.0973 31.8331 94.4534 33.5838 94.3527 35.6364H87.1084C87.2292 32.3965 88.2051 29.5592 90.0363 27.1243C91.8675 24.6693 94.2622 22.7576 97.2203 21.3892C100.199 20.0208 103.469 19.3366 107.03 19.3366C110.854 19.3366 114.134 20.1114 116.871 21.6609C119.607 23.1902 121.71 25.2126 123.179 27.728C124.648 30.2434 125.383 32.96 125.383 35.8778C125.383 39.3591 124.467 42.3273 122.636 44.7823C120.825 47.2373 118.36 48.9377 115.241 49.8835V50.3665C119.144 51.0104 122.193 52.6706 124.386 55.3469C126.58 58.0032 127.677 61.2933 127.677 65.2173C127.677 68.5779 126.761 71.5964 124.93 74.2727C123.119 76.929 120.644 79.0218 117.504 80.5511C114.365 82.0805 110.793 82.8452 106.789 82.8452Z" fill="#DEA231"/>
<path d="M6 10.4457L23.4545 10.4457L23.4545 16.3434C23.4545 17.7127 23.2074 18.832 22.7131 19.7013C22.2244 20.5763 21.5625 21.2241 20.7273 21.6445C19.892 22.065 18.9602 22.2752 17.9318 22.2752C16.9034 22.2752 15.9687 22.065 15.1278 21.6445C14.2869 21.2298 13.6165 20.5877 13.1165 19.7184C12.6222 18.8491 12.375 17.7354 12.375 16.3775L12.375 12.1502L14.25 12.1502L14.25 16.3093C14.25 17.2468 14.4119 17.9996 14.7358 18.5678C15.0597 19.136 15.4972 19.5479 16.0483 19.8036C16.6051 20.065 17.233 20.1957 17.9318 20.1957C18.6307 20.1957 19.2557 20.065 19.8068 19.8036C20.358 19.5479 20.7898 19.1332 21.1023 18.5593C21.4205 17.9854 21.5795 17.2241 21.5795 16.2752L21.5795 12.5593L6 12.5593L6 10.4457ZM14.7273 40.4073C12.8864 40.4073 11.2955 40.0749 9.95454 39.4102C8.61364 38.7454 7.57954 37.8335 6.85227 36.6744C6.125 35.5153 5.76136 34.1914 5.76136 32.7028C5.76136 31.2141 6.125 29.8903 6.85227 28.7312C7.57954 27.5721 8.61364 26.6602 9.95454 25.9954C11.2955 25.3306 12.8864 24.9982 14.7273 24.9982C16.5682 24.9982 18.1591 25.3306 19.5 25.9954C20.8409 26.6602 21.875 27.5721 22.6023 28.7312C23.3295 29.8903 23.6932 31.2141 23.6932 32.7028C23.6932 34.1914 23.3295 35.5153 22.6023 36.6744C21.875 37.8335 20.8409 38.7454 19.5 39.4102C18.1591 40.0749 16.5682 40.4073 14.7273 40.4073ZM14.7273 38.3619C16.2386 38.3619 17.5142 38.109 18.554 37.6033C19.5937 37.1033 20.3807 36.4244 20.9148 35.5664C21.4489 34.7141 21.7159 33.7596 21.7159 32.7028C21.7159 31.646 21.4489 30.6886 20.9148 29.8306C20.3807 28.9783 19.5937 28.2994 18.554 27.7937C17.5142 27.2937 16.2386 27.0437 14.7273 27.0437C13.2159 27.0437 11.9403 27.2937 10.9006 27.7937C9.86079 28.2994 9.07386 28.9783 8.53977 29.8306C8.00568 30.6886 7.73864 31.646 7.73864 32.7028C7.73864 33.7596 8.00568 34.7141 8.53977 35.5664C9.07386 36.4244 9.86079 37.1033 10.9006 37.6033C11.9403 38.109 13.2159 38.3619 14.7273 38.3619ZM23.4545 46.0749L6 46.0749L6 43.9613L23.4545 43.9613L23.4545 46.0749ZM23.4545 64.1538L6 64.1538L6 62.1083L19.7045 52.5969L19.7045 52.4265L6 52.4265L6 50.3129L23.4545 50.3129L23.4545 52.3583L9.71591 61.9038L9.71591 62.0742L23.4545 62.0742L23.4545 64.1538ZM21.5795 67.4286L23.4545 67.4286L23.4545 80.5195L21.5795 80.5195L21.5795 75.0309L6 75.0309L6 72.9173L21.5795 72.9173L21.5795 67.4286Z" fill="#DEA231"/>
</svg>
