<svg width="127" height="119" viewBox="0 0 127 119" fill="none" xmlns="http://www.w3.org/2000/svg">
<path d="M96.9261 3.06637C99.4182 3.06637 100.824 5.92876 99.3 7.9007L19.4046 111.296C17.6519 113.565 14.0208 112.318 14.0308 109.452L14.3912 6.05606C14.397 4.4033 15.7384 3.06652 17.3912 3.06652L96.9261 3.06637Z" fill="#FAF1E0"/>
<path d="M60.7441 82.8452C56.1963 82.8452 52.3226 81.6076 49.123 79.1325C45.9234 76.6372 43.4785 73.0251 41.7881 68.2962C40.0978 63.5471 39.2526 57.812 39.2526 51.0909C39.2526 44.41 40.0978 38.7051 41.7881 33.9762C43.4986 29.2272 45.9536 25.605 49.1532 23.1097C52.3729 20.5943 56.2365 19.3366 60.7441 19.3366C65.2517 19.3366 69.1052 20.5943 72.3048 23.1097C75.5245 25.605 77.9795 29.2272 79.6699 33.9762C81.3803 38.7051 82.2356 44.41 82.2356 51.0909C82.2356 57.812 81.3904 63.5471 79.7 68.2962C78.0097 73.0251 75.5647 76.6372 72.3652 79.1325C69.1656 81.6076 65.2919 82.8452 60.7441 82.8452ZM60.7441 76.2045C65.2517 76.2045 68.7531 74.0312 71.2483 69.6847C73.7436 65.3381 74.9912 59.1402 74.9912 51.0909C74.9912 45.7382 74.4177 41.1803 73.2707 37.4173C72.1438 33.6542 70.5138 30.7867 68.3808 28.8146C66.2679 26.8426 63.7223 25.8565 60.7441 25.8565C56.2768 25.8565 52.7854 28.06 50.27 32.467C47.7546 36.8538 46.4969 43.0618 46.4969 51.0909C46.4969 56.4437 47.0604 60.9915 48.1873 64.7344C49.3142 68.4773 50.9341 71.3247 53.047 73.2766C55.18 75.2286 57.7457 76.2045 60.7441 76.2045ZM115.439 20.1818V82H107.953V28.0298H107.591L92.4983 38.0511V30.4446L107.953 20.1818H115.439Z" fill="#DEA231"/>
<path d="M6 10.4457L23.4545 10.4457L23.4545 16.3434C23.4545 17.7127 23.2074 18.832 22.7131 19.7013C22.2244 20.5763 21.5625 21.2241 20.7273 21.6445C19.892 22.065 18.9602 22.2752 17.9318 22.2752C16.9034 22.2752 15.9687 22.065 15.1278 21.6445C14.2869 21.2298 13.6165 20.5877 13.1165 19.7184C12.6222 18.8491 12.375 17.7354 12.375 16.3775L12.375 12.1502L14.25 12.1502L14.25 16.3093C14.25 17.2468 14.4119 17.9996 14.7358 18.5678C15.0597 19.136 15.4972 19.5479 16.0483 19.8036C16.6051 20.065 17.233 20.1957 17.9318 20.1957C18.6307 20.1957 19.2557 20.065 19.8068 19.8036C20.358 19.5479 20.7898 19.1332 21.1023 18.5593C21.4205 17.9854 21.5795 17.2241 21.5795 16.2752L21.5795 12.5593L6 12.5593L6 10.4457ZM14.7273 40.4073C12.8864 40.4073 11.2955 40.0749 9.95454 39.4102C8.61364 38.7454 7.57954 37.8335 6.85227 36.6744C6.125 35.5153 5.76136 34.1914 5.76136 32.7028C5.76136 31.2141 6.125 29.8903 6.85227 28.7312C7.57954 27.5721 8.61364 26.6602 9.95454 25.9954C11.2955 25.3306 12.8864 24.9982 14.7273 24.9982C16.5682 24.9982 18.1591 25.3306 19.5 25.9954C20.8409 26.6602 21.875 27.5721 22.6023 28.7312C23.3295 29.8903 23.6932 31.2141 23.6932 32.7028C23.6932 34.1914 23.3295 35.5153 22.6023 36.6744C21.875 37.8335 20.8409 38.7454 19.5 39.4102C18.1591 40.0749 16.5682 40.4073 14.7273 40.4073ZM14.7273 38.3619C16.2386 38.3619 17.5142 38.109 18.554 37.6033C19.5937 37.1033 20.3807 36.4244 20.9148 35.5664C21.4489 34.7141 21.7159 33.7596 21.7159 32.7028C21.7159 31.646 21.4489 30.6886 20.9148 29.8306C20.3807 28.9783 19.5937 28.2994 18.554 27.7937C17.5142 27.2937 16.2386 27.0437 14.7273 27.0437C13.2159 27.0437 11.9403 27.2937 10.9006 27.7937C9.86079 28.2994 9.07386 28.9783 8.53977 29.8306C8.00568 30.6886 7.73864 31.646 7.73864 32.7028C7.73864 33.7596 8.00568 34.7141 8.53977 35.5664C9.07386 36.4244 9.86079 37.1033 10.9006 37.6033C11.9403 38.109 13.2159 38.3619 14.7273 38.3619ZM23.4545 46.0749L6 46.0749L6 43.9613L23.4545 43.9613L23.4545 46.0749ZM23.4545 64.1538L6 64.1538L6 62.1083L19.7045 52.5969L19.7045 52.4265L6 52.4265L6 50.3129L23.4545 50.3129L23.4545 52.3583L9.71591 61.9038L9.71591 62.0742L23.4545 62.0742L23.4545 64.1538ZM21.5795 67.4286L23.4545 67.4286L23.4545 80.5195L21.5795 80.5195L21.5795 75.0309L6 75.0309L6 72.9173L21.5795 72.9173L21.5795 67.4286Z" fill="#DEA231"/>
</svg>
