<svg width="385" height="190" viewBox="0 0 385 190" fill="none" xmlns="http://www.w3.org/2000/svg">
<path fill-rule="evenodd" clip-rule="evenodd" d="M385 30.6605C382.81 29.9272 380.331 30.7945 379.11 32.8636C377.707 35.2419 378.498 38.3075 380.876 39.7107C382.262 40.5284 383.637 41.3585 385 42.2003V30.6605ZM286.532 0.281699C283.775 0.137154 281.422 2.25548 281.278 5.01312C281.133 7.77076 283.251 10.1234 286.009 10.268C294.497 10.7129 302.784 11.7033 310.858 13.1753C313.574 13.6706 316.178 11.8699 316.673 9.15327C317.169 6.43663 315.368 3.83283 312.651 3.33751C304.168 1.79071 295.456 0.749455 286.532 0.281699ZM260.944 10.5569C263.698 10.3504 265.763 7.95068 265.557 5.19699C265.35 2.4433 262.95 0.378394 260.197 0.584896C251.698 1.2222 243.041 2.39049 234.236 4.13941C231.527 4.67739 229.768 7.30919 230.306 10.0177C230.844 12.7262 233.475 14.4858 236.184 13.9478C244.594 12.2773 252.851 11.1638 260.944 10.5569ZM338.151 9.65989C335.517 8.83097 332.709 10.2943 331.88 12.9284C331.051 15.5625 332.515 18.3698 335.149 19.1987C343.212 21.7362 351.025 24.7404 358.571 28.1365C361.089 29.2698 364.049 28.1472 365.183 25.6291C366.316 23.1109 365.193 20.1508 362.675 19.0175C354.786 15.467 346.606 12.3206 338.151 9.65989ZM211.807 20.2602C214.438 19.4206 215.89 16.6074 215.05 13.9767C214.211 11.346 211.397 9.89405 208.767 10.7336C200.736 13.2966 192.601 16.3502 184.371 19.9276C181.838 21.0284 180.678 23.9738 181.778 26.5063C182.879 29.0389 185.825 30.1995 188.357 29.0987C196.286 25.6524 204.105 22.7183 211.807 20.2602ZM165.709 40.2069C168.133 38.8829 169.024 35.8451 167.7 33.4218C166.376 30.9985 163.338 30.1073 160.915 31.4313C153.51 35.4768 146.038 39.9529 138.502 44.882C136.191 46.3936 135.543 49.4924 137.054 51.8034C138.566 54.1143 141.665 54.7624 143.976 53.2508C151.298 48.4613 158.544 44.1217 165.709 40.2069ZM123.267 67.8655C125.469 66.198 125.901 63.0619 124.234 60.8607C122.566 58.6596 119.43 58.2271 117.229 59.8946C110.545 64.9577 103.817 70.383 97.0472 76.1855C94.9505 77.9826 94.7076 81.1391 96.5047 83.2357C98.3017 85.3324 101.458 85.5753 103.555 83.7782C110.178 78.1019 116.75 72.8031 123.267 67.8655ZM84.7178 100.828C86.7165 98.9227 86.792 95.7578 84.8866 93.7591C82.9811 91.7604 79.8162 91.6849 77.8175 93.5903C71.7319 99.392 65.6155 105.503 59.4703 111.935C57.5627 113.932 57.6349 117.097 59.6315 119.005C61.6282 120.912 64.7932 120.84 66.7008 118.843C72.7421 112.52 78.7486 106.519 84.7178 100.828ZM49.485 137.639C51.3086 135.566 51.1059 132.406 49.0322 130.583C46.9586 128.759 43.7992 128.962 41.9757 131.036C36.4494 137.32 30.9018 143.867 25.3344 150.685C23.5878 152.824 23.9059 155.974 26.0448 157.72C28.1837 159.467 31.3335 159.149 33.0801 157.01C38.5728 150.283 44.0417 143.829 49.485 137.639ZM17.327 176.972C19.0026 174.777 18.5815 171.64 16.3865 169.964C14.1915 168.289 11.0538 168.71 9.37824 170.905C6.74926 174.349 4.11621 177.854 1.47926 181.421C-0.162189 183.642 0.307308 186.773 2.52792 188.414C4.74852 190.056 7.87934 189.586 9.52079 187.365C12.1276 183.839 14.7297 180.375 17.327 176.972Z" fill="#FAF1E0"/>
</svg>
