<svg width="385" height="191" viewBox="0 0 385 191" fill="none" xmlns="http://www.w3.org/2000/svg">
<path fill-rule="evenodd" clip-rule="evenodd" d="M0 159.626C2.18999 160.359 4.66883 159.492 5.88959 157.423C7.29279 155.045 6.50229 151.979 4.12397 150.576C2.73804 149.758 1.36334 148.928 0 148.086V159.626ZM98.4676 190.005C101.225 190.149 103.578 188.031 103.722 185.273C103.867 182.516 101.749 180.163 98.9911 180.019C90.5031 179.574 82.216 178.583 74.1424 177.111C71.4258 176.616 68.822 178.417 68.3267 181.133C67.8314 183.85 69.6321 186.454 72.3487 186.949C80.8324 188.496 89.5437 189.537 98.4676 190.005ZM124.056 179.73C121.302 179.936 119.237 182.336 119.444 185.09C119.65 187.843 122.05 189.908 124.803 189.702C133.302 189.064 141.959 187.896 150.764 186.147C153.473 185.609 155.232 182.977 154.695 180.269C154.157 177.56 151.525 175.801 148.816 176.339C140.406 178.009 132.149 179.123 124.056 179.73ZM46.8494 180.627C49.4835 181.456 52.2908 179.992 53.1197 177.358C53.9486 174.724 52.4852 171.917 49.8512 171.088C41.7877 168.55 33.9749 165.546 26.4288 162.15C23.9107 161.017 20.9506 162.139 19.8173 164.658C18.684 167.176 19.8066 170.136 22.3248 171.269C30.2138 174.82 38.3943 177.966 46.8494 180.627ZM173.193 170.026C170.562 170.866 169.11 173.679 169.95 176.31C170.79 178.941 173.603 180.393 176.233 179.553C184.264 176.99 192.399 173.936 200.629 170.359C203.162 169.258 204.322 166.313 203.222 163.78C202.121 161.248 199.175 160.087 196.643 161.188C188.714 164.634 180.895 167.568 173.193 170.026ZM219.291 150.08C216.867 151.404 215.976 154.441 217.3 156.865C218.624 159.288 221.662 160.179 224.085 158.855C231.49 154.81 238.963 150.334 246.498 145.405C248.809 143.893 249.457 140.794 247.946 138.483C246.434 136.172 243.335 135.524 241.024 137.036C233.702 141.825 226.456 146.165 219.291 150.08ZM261.733 122.421C259.531 124.089 259.099 127.225 260.766 129.426C262.434 131.627 265.57 132.06 267.771 130.392C274.455 125.329 281.183 119.904 287.953 114.101C290.049 112.304 290.292 109.148 288.495 107.051C286.698 104.954 283.542 104.711 281.445 106.508C274.822 112.185 268.25 117.483 261.733 122.421ZM300.282 89.4585C298.284 91.3639 298.208 94.5288 300.113 96.5275C302.019 98.5262 305.184 98.6018 307.183 96.6963C313.268 90.8946 319.385 84.7831 325.53 78.3512C327.437 76.3546 327.365 73.1896 325.368 71.282C323.372 69.3744 320.207 69.4466 318.299 71.4432C312.258 77.7664 306.251 83.7677 300.282 89.4585ZM335.515 52.6472C333.691 54.7209 333.894 57.8802 335.968 59.7038C338.041 61.5274 341.201 61.3247 343.024 59.251C348.551 52.967 354.098 46.4197 359.666 39.6017C361.412 37.4627 361.094 34.3129 358.955 32.5664C356.816 30.8198 353.667 31.1379 351.92 33.2768C346.427 40.0034 340.958 46.4575 335.515 52.6472ZM367.673 13.3143C365.997 15.5093 366.419 18.647 368.614 20.3226C370.809 21.9981 373.946 21.577 375.622 19.382C378.251 15.938 380.884 12.4328 383.521 8.86542C385.162 6.64482 384.693 3.51399 382.472 1.87254C380.252 0.231094 377.121 0.700592 375.479 2.9212C372.872 6.44775 370.27 9.91183 367.673 13.3143Z" fill="#FAF1E0"/>
</svg>
