<svg width="59" height="208" viewBox="0 0 59 208" fill="none" xmlns="http://www.w3.org/2000/svg">
<path fill-rule="evenodd" clip-rule="evenodd" d="M47.2632 0C45.2176 4.14495 43.2242 8.40464 41.2853 12.7815C40.1669 15.3063 41.307 18.2598 43.8318 19.3782C46.3566 20.4966 49.31 19.3565 50.4284 16.8317C53.0113 11.0009 55.6901 5.39271 58.458 0H47.2632ZM40.9879 40.3539C41.9294 37.7579 40.5882 34.8902 37.9922 33.9487C35.3962 33.0073 32.5285 34.3485 31.5871 36.9445C28.7284 44.8269 26.0289 53.0376 23.4994 61.5877C22.716 64.2357 24.2276 67.0173 26.8755 67.8007C29.5235 68.5841 32.3052 67.0726 33.0886 64.4246C35.5631 56.0604 38.2002 48.0408 40.9879 40.3539ZM26.542 88.9741C27.1843 86.2884 25.5277 83.5906 22.842 82.9484C20.1563 82.3062 17.4585 83.9628 16.8162 86.6485C14.8608 94.8259 13.0478 103.28 11.3849 112.019C10.8687 114.732 12.6493 117.349 15.3621 117.865C18.0748 118.382 20.6924 116.601 21.2086 113.888C22.8434 105.297 24.624 96.9952 26.542 88.9741ZM16.972 139.022C17.3758 136.291 15.4887 133.749 12.757 133.345C10.0252 132.941 7.48334 134.828 7.07951 137.56C5.85574 145.838 4.75706 154.349 3.78896 163.098C3.48526 165.843 5.46406 168.314 8.20873 168.618C10.9534 168.922 13.4246 166.943 13.7283 164.198C14.6834 155.566 15.7666 147.176 16.972 139.022ZM11.3535 189.516C11.5671 186.763 9.50844 184.358 6.75529 184.145C4.00214 183.931 1.59711 185.99 1.38348 188.743C1.04831 193.063 0.743027 197.436 0.468207 201.864C0.297129 204.62 2.39273 206.993 5.14885 207.164C7.90496 207.335 10.2779 205.239 10.449 202.483C10.7207 198.106 11.0224 193.784 11.3535 189.516Z" fill="#FAF1E0"/>
</svg>
