<svg width="260" height="252" viewBox="0 0 260 252" fill="none" xmlns="http://www.w3.org/2000/svg">
<path fill-rule="evenodd" clip-rule="evenodd" d="M0 11.1211C5.4526 12.39 10.9529 13.8361 16.4901 15.4714C19.1384 16.2536 21.9194 14.7407 22.7015 12.0924C23.4837 9.44407 21.9709 6.6631 19.3225 5.88094C12.8279 3.96281 6.38154 2.29622 0 0.863072V11.1211ZM63.2045 33.7158C55.5289 29.946 47.8661 26.5865 40.2433 23.607C37.6713 22.6017 36.4013 19.7018 37.4066 17.1299C38.4119 14.5579 41.3118 13.2879 43.8837 14.2932C51.7642 17.3734 59.6834 20.8454 67.6129 24.7399C70.0916 25.9573 71.114 28.9535 69.8966 31.4321C68.6793 33.9107 65.6831 34.9331 63.2045 33.7158ZM85.3109 45.7279C82.9403 44.3117 82.1666 41.2418 83.5829 38.8712C84.9991 36.5007 88.069 35.727 90.4396 37.1433C97.6897 41.4747 104.925 46.1839 112.123 51.2942C114.375 52.8928 114.904 56.014 113.306 58.2657C111.707 60.5174 108.586 61.0469 106.334 59.4483C99.3505 54.4904 92.3357 49.9248 85.3109 45.7279ZM126.316 74.811C124.191 73.0472 123.899 69.8949 125.663 67.7702C127.426 65.6455 130.579 65.3529 132.703 67.1167C139.181 72.4942 145.61 78.2225 151.975 84.3192C153.969 86.2294 154.037 89.3945 152.127 91.3887C150.216 93.3828 147.051 93.4508 145.057 91.5405C138.863 85.6066 132.61 80.0361 126.316 74.811ZM162.672 109.595C160.81 107.556 160.953 104.393 162.992 102.531C165.032 100.669 168.194 100.812 170.056 102.852C175.747 109.083 181.369 115.635 186.913 122.522C188.644 124.673 188.304 127.821 186.153 129.552C184.001 131.284 180.854 130.944 179.122 128.792C173.708 122.065 168.22 115.671 162.672 109.595ZM194.338 148.866C192.733 146.619 193.253 143.496 195.5 141.891C197.747 140.286 200.87 140.807 202.475 143.054C207.357 149.889 212.163 157.009 216.885 164.424C218.368 166.753 217.682 169.844 215.353 171.327C213.024 172.81 209.933 172.124 208.45 169.795C203.822 162.527 199.114 155.554 194.338 148.866ZM221.494 191.451C220.127 189.052 220.964 185.998 223.363 184.631C225.762 183.264 228.815 184.101 230.183 186.5C234.342 193.799 238.424 201.352 242.421 209.166C243.678 211.625 242.704 214.637 240.246 215.895C237.787 217.152 234.775 216.178 233.517 213.72C229.588 206.037 225.578 198.616 221.494 191.451ZM244.572 236.506C243.418 233.998 244.516 231.028 247.024 229.874C249.533 228.72 252.502 229.818 253.656 232.327C255.45 236.226 257.224 240.185 258.977 244.203C260.081 246.734 258.924 249.681 256.393 250.785C253.862 251.889 250.915 250.733 249.811 248.201C248.084 244.243 246.338 240.345 244.572 236.506Z" fill="#FAF1E0"/>
</svg>
