<svg width="266" height="249" viewBox="0 0 266 249" fill="none" xmlns="http://www.w3.org/2000/svg">
<path fill-rule="evenodd" clip-rule="evenodd" d="M261.079 223.223C260.438 220.537 257.741 218.88 255.055 219.521C252.369 220.162 250.711 222.86 251.353 225.545C253.23 233.407 254.582 241.234 255.46 249H265.521C264.604 240.471 263.143 231.868 261.079 223.223ZM243.987 201.586C244.963 204.169 247.849 205.471 250.432 204.494C253.015 203.517 254.317 200.631 253.34 198.048C250.325 190.077 246.756 182.104 242.588 174.153C241.306 171.707 238.284 170.764 235.838 172.046C233.392 173.328 232.449 176.35 233.731 178.795C237.712 186.39 241.115 193.994 243.987 201.586ZM220.782 157.199C222.331 159.485 225.44 160.082 227.726 158.533C230.012 156.983 230.609 153.874 229.059 151.589C224.33 144.611 219.1 137.672 213.341 130.789C211.569 128.672 208.415 128.391 206.298 130.163C204.18 131.936 203.9 135.089 205.672 137.207C211.22 143.837 216.246 150.507 220.782 157.199ZM188.612 118.626C190.567 120.575 193.733 120.571 195.683 118.616C197.633 116.66 197.628 113.495 195.673 111.545C189.698 105.587 183.291 99.685 176.432 93.8509C174.329 92.0618 171.173 92.3167 169.384 94.4202C167.595 96.5237 167.85 99.6792 169.953 101.468C176.618 107.137 182.83 112.86 188.612 118.626ZM150.078 85.7392C152.3 87.3789 155.431 86.9068 157.07 84.6848C158.71 82.4629 158.238 79.3324 156.016 77.6928C149.269 72.7143 142.163 67.7952 134.682 62.9427C132.365 61.4399 129.269 62.0997 127.766 64.4164C126.264 66.7331 126.923 69.8294 129.24 71.3322C136.558 76.0791 143.499 80.8842 150.078 85.7392ZM107.559 58.0865C109.951 59.4646 113.009 58.642 114.387 56.249C115.765 53.8561 114.942 50.799 112.549 49.4209C105.263 45.2247 97.6713 41.0865 89.764 37.0114C87.3094 35.7464 84.294 36.7108 83.029 39.1654C81.764 41.6201 82.7284 44.6354 85.183 45.9004C92.9567 49.9066 100.412 53.9705 107.559 58.0865ZM62.2853 34.7037C64.7901 35.8663 67.7631 34.7783 68.9257 32.2736C70.0883 29.7688 69.0004 26.7958 66.4956 25.6332C58.9051 22.1099 51.0562 18.6406 42.9418 15.2289C40.3963 14.1586 37.465 15.3545 36.3947 17.9001C35.3244 20.4457 36.5204 23.3769 39.0659 24.4472C47.0714 27.8131 54.8088 31.2333 62.2853 34.7037ZM15.4631 14.9834C18.0423 15.9697 20.9328 14.6784 21.9192 12.0991C22.9055 9.51983 21.6141 6.62934 19.0349 5.64302C14.9879 4.09545 10.8811 2.56132 6.71357 1.041C4.11939 0.0946262 1.24918 1.43045 0.302815 4.02465C-0.643552 6.61884 0.692273 9.48903 3.28647 10.4354C7.40632 11.9383 11.4649 13.4545 15.4631 14.9834Z" fill="#FAF1E0"/>
</svg>
