<svg width="130" height="191" viewBox="0 0 130 191" fill="none" xmlns="http://www.w3.org/2000/svg">
<g clip-path="url(#clip0_898_3404)">
<path d="M115.297 189.835C91.1972 189.788 67.0975 189.865 43.0003 189.802C43.5066 176.543 44.7548 163.313 45.9287 150.098C46.1644 147.383 46.2315 147.333 48.7727 148.14C67.1794 150.929 86.3629 151.225 104.824 148.606C106.829 148.234 107.013 148.333 107.562 150.334C110.661 163.308 114.252 176.607 115.302 189.832L115.297 189.835Z" fill="#153C8D"/>
<path d="M102.834 70.1898C106.971 71.8972 106.834 74.0563 106.805 77.9625C107.44 79.7195 107.388 81.3922 106.105 82.8738C105.497 84.5985 105.472 86.5343 104.606 88.2169C103.824 90.9194 101.015 90.3362 101.945 88.192C102.633 87.0157 103.06 85.7997 103.256 84.4546C99.4737 83.8565 93.87 87.2416 91.8226 82.5636C89.8298 84.4894 83.8043 82.4246 85.4794 79.99C86.4944 78.8286 87.6633 80.8239 88.7999 80.9629C89.9887 81.2433 90.7629 80.5807 90.5892 79.3696C90.3684 76.9053 87.6186 72.339 85.2784 75.6818C81.8834 80.2432 84.5587 86.0826 89.1697 88.609C90.7803 89.0706 90.8027 91.4629 88.8917 91.1204C84.0946 88.7281 80.119 83.4942 81.6799 77.9451C75.24 77.9923 67.8569 77.2205 63.3651 71.8675C63.0697 71.525 62.8414 71.2942 62.2855 71.4282C53.7559 73.6841 44.8392 75.2599 36.8755 79.1711C30.6415 83.6183 36.9574 83.3875 27.1175 86.3705C26.3183 86.6608 26.3183 86.6708 26.569 87.4351C26.842 88.264 27.1299 89.0854 27.3979 89.9143C28.1622 91.6788 25.5614 92.5697 25.142 90.6588C22.6852 83.1244 19.789 75.7439 17.1882 68.2591C12.6269 67.7081 7.89178 68.4477 8.86957 62.0772C7.5096 62.8291 5.90146 61.4319 7.16465 60.2209C8.3906 58.707 19.9032 53.22 16.5256 51.4059C12.5996 50.9865 8.75293 53.426 5.41505 55.3096C3.45203 56.5802 2.87876 58.3298 3.26094 60.536C3.85407 64.5663 6.25883 68.073 5.96102 72.2521C5.83694 80.3846 6.40277 88.5122 6.77998 96.6348C7.15224 100.933 7.21676 105.847 10.309 109.2C10.917 109.808 10.8921 110.49 10.3635 110.974C6.82962 112.681 4.57872 102.104 4.64573 99.6724C4.06501 90.644 3.54634 81.6081 3.61831 72.5574C3.63568 70.4852 3.3205 68.5693 2.56359 66.6609C1.81908 64.7822 1.21851 62.8515 0.94056 60.8314C0.501301 59.2059 1.26814 57.5928 0.905817 56.0094C0.364808 54.3293 0.0223341 52.6294 0.565825 50.8723C0.511228 49.0384 -0.181165 47.2242 0.0421877 45.3357C0.0818948 44.3604 0.650202 43.5191 0.739543 42.6009C0.831366 41.6777 0.536044 40.7272 0.7048 39.7643C1.57836 35.8209 5.59622 33.5799 8.87453 31.8105C11.8054 30.6093 10.2221 27.4104 11.1775 25.0702C11.9419 21.2732 16.1161 22.4445 18.9527 22.5066C22.9879 22.787 27.0231 23.0898 31.0584 23.395C36.6 23.2809 35.7116 27.4749 35.4708 31.5325C34.6965 43.1295 33.9893 54.7388 33.1281 66.3234C32.7484 68.1201 31.7036 69.0011 29.8672 68.9713C26.5541 68.8721 23.2237 68.5792 19.9205 68.3757C21.2607 73.5153 23.5413 78.4886 25.2165 83.5761C25.5168 84.405 25.5292 84.4099 26.3705 84.1146C27.718 83.6456 29.0557 83.1542 30.4057 82.6901C30.8325 82.5437 31.1502 82.3576 31.3562 81.896C32.5648 79.181 34.709 77.4289 37.3594 76.2328C45.1941 72.9768 53.54 71.1577 61.7544 69.1302C62.4766 68.9614 63.0598 68.6735 63.5884 68.14C64.9831 66.7279 66.4448 65.3853 67.9835 64.1271C69.0481 63.256 69.264 63.2585 70.3709 64.0228C70.7878 64.2685 71.0037 64.5936 71.5621 64.5341C71.5844 63.5339 71.4926 62.4991 71.639 61.5064C71.8748 60.1315 73.942 60.273 73.9271 61.69C73.952 62.5611 73.9048 63.4347 73.8849 64.3082C73.8552 65.76 73.8577 65.7451 75.2548 66.0355C78.8161 66.8172 82.355 66.3308 85.8864 65.7625C87.3754 65.7575 87.3779 67.934 85.9584 68.1052C80.6376 69.0954 74.6841 69.356 69.8646 66.4946C68.728 65.6334 66.6037 68.944 65.4869 69.557C65.0055 69.9764 65.0303 70.2519 65.4596 70.6961C69.7256 75.0763 76.2376 75.9647 82.0671 75.3518C82.5064 75.3021 82.7769 75.1557 83.0126 74.776C84.1195 72.3961 87.8941 72.4879 87.9487 69.4726C88.0058 65.281 87.5318 60.752 89.3881 56.8656C79.1288 61.4642 63.2037 61.6081 56.0565 51.3315C55.7363 50.8277 55.3045 50.5596 54.7908 50.3264C49.4477 48.2442 46.7427 41.5039 49.887 36.5133C51.4505 33.5005 53.7659 34.781 53.89 33.2697C54.4781 31.7707 55.9051 25.5268 58.0865 26.7006C58.5729 27.0183 58.7764 27.4774 58.5977 28.0333C47.5368 49.2369 65.1916 62.6083 85.5836 55.8084C87.5343 55.0912 89.2888 54.0018 90.9069 52.7187C92.2222 52.0263 93.2322 53.7238 92.2743 54.7512C97.198 55.0788 96.0614 59.6873 96.178 63.2585C97.4288 61.4592 98.1038 59.0967 100.049 57.8335C102.276 56.1335 105.581 58.0668 105.385 60.814C104.852 63.998 103.628 67.0555 102.831 70.1874L102.834 70.1898Z" fill="black"/>
<path d="M115.297 189.835C113.418 177.846 111.048 165.928 108.194 154.133C107.797 152.52 107.298 150.932 106.879 149.323C106.723 148.725 106.44 148.609 105.847 148.735C94.4284 150.971 82.7049 150.671 71.1352 150.497C62.9705 150.041 54.4459 150.266 46.6211 147.857C45.2487 157.932 44.7945 168.157 43.9582 178.295C43.7349 181.734 43.509 185.174 43.452 188.621C43.4395 189.1 43.2435 189.447 42.9978 189.805C41.7197 190.239 41.067 189.832 41.0968 188.507C41.144 186.405 41.2358 184.303 41.3723 182.206C42.1317 170.45 43.0499 158.699 44.2908 146.986C44.3379 146.569 44.2039 146.333 43.8962 146.085C40.9107 143.658 39.8039 140.451 40.0322 136.697C40.5707 129.328 42.0796 122.007 43.2584 114.744C43.0574 114.433 42.8017 114.555 42.5784 114.56C40.1935 114.629 38.1262 113.83 36.4337 112.175C35.0043 110.842 32.5846 112.463 30.8152 112.453C30.3188 112.545 29.8275 112.721 29.3013 112.478C28.9067 112.294 28.532 112.572 28.1598 112.686C23.1244 114.051 17.0194 115.719 12.2074 112.939C11.4257 112.031 12.4035 110.644 13.5153 111.086C16.7762 112.562 20.1166 112.078 23.4495 111.46C24.9683 110.937 29.1921 110.706 29.4304 108.897C30.1873 103.943 29.3485 98.8384 27.5418 94.2026C26.7328 92.4852 29.0929 91.5794 29.7356 93.3389C31.8451 98.5654 32.5424 104.286 31.7111 109.877C32.9842 109.619 34.1431 109.413 35.2897 109.145C37.8905 108.433 38.3074 112.736 42.6702 112.177C43.6827 112.098 43.7547 112.011 43.9433 111.011C44.7945 106.988 45.3207 102.861 46.3555 98.893C46.7948 97.9574 48.4675 98.2676 48.4675 99.3297C47.1273 107.723 45.271 116.071 43.9979 124.494C43.5016 131.488 38.9378 140.978 47.0976 145.338C49.0655 146.271 51.1204 146.755 53.267 146.966C66.5317 148.224 79.8956 148.658 93.2049 147.939C101.293 147.169 112.929 147.919 110.716 136.208C99.1436 139.436 92.2569 132.552 91.3064 121.29C89.9241 111.952 89.5097 102.491 88.8148 93.0908C88.9463 91.835 90.7902 91.7035 91.0657 92.9543C91.6464 98.0318 91.7928 103.164 92.2668 108.256C92.8401 114.711 93.2149 121.278 95.1307 127.512C98.61 138.034 113.689 136.054 117.707 127.035C119.702 123.655 118.61 122.844 116.29 120.039C115.994 120.176 116.126 120.397 116.099 120.558C115.962 121.777 114.121 121.923 113.83 120.657C110.815 110.994 106.596 101.794 102.819 92.4306C102.678 91.8499 102.963 91.2642 103.472 91.0508C104.482 90.6165 105.127 91.6141 105.378 92.4703C107.281 97.0863 109.19 101.7 111.076 106.323C111.314 106.906 111.599 107.224 112.277 107.41C117.622 108.78 121.327 112.45 124.189 116.952C132.465 107.725 120.303 91.7432 114.567 83.767C112.758 81.4963 110.84 79.3273 108.485 77.5975C107.162 76.925 108.132 74.7337 109.5 75.4683C118.076 82.1936 123.668 92.0509 127.872 101.96C130.222 107.542 130.12 114.493 125.593 118.95C123.683 120.876 123.283 125.318 120.861 126.569C120.466 126.604 120.375 126.924 120.248 127.212C118.799 130.46 116.568 133.024 113.51 134.85C113.101 135.093 113.036 135.347 113.108 135.813C113.771 139.895 112.917 144.65 109.348 147.174C108.907 147.492 108.842 147.77 108.996 148.261C110.872 154.287 112.115 160.466 113.431 166.628C114.967 173.999 116.481 181.384 117.488 188.849C117.903 190.17 116.022 191.155 115.299 189.835H115.297Z" fill="black"/>
<path d="M115.56 43.0498C116.592 56.2896 104.177 65.668 110.902 69.9539C111.624 70.413 111.746 71.1054 111.356 71.6786C110.959 72.2593 110.324 72.3388 109.574 71.897C107.127 70.4576 106.03 67.8221 106.628 64.8143C107.475 60.4688 110.525 57.0416 111.753 52.8277C115.848 37.3171 110.068 16.1383 96.1557 7.20673C86.4225 1.0025 74.5426 0.61287 64.6382 6.76002C62.7571 7.15958 62.6851 4.84167 64.3031 4.22621C75.9448 -2.75479 91.0757 -0.821549 101.194 8.02072C111.145 16.6148 114.89 30.3212 115.563 43.0449L115.56 43.0498Z" fill="black"/>
<path d="M51.6341 63.2535C51.8277 64.5439 49.3807 70.8623 47.0355 69.2393C45.3306 67.3284 51.9939 65.0055 48.1051 58.8906C44.8467 54.1779 42.9904 48.4948 43.5065 42.7423C44.6804 30.649 48.4898 17.9328 57.3618 9.26672C59.3174 7.0183 61.5882 8.50484 59.99 10.1899C57.2452 12.2472 55.1184 14.9969 53.4581 17.9725C47.4475 29.6935 41.5956 45.4275 49.9565 57.3768C51.0013 58.9279 51.6366 60.6055 51.6341 63.2535Z" fill="black"/>
<path d="M104.199 43.2733C104.34 48.1374 100.124 51.6168 95.7487 52.8179C94.0264 53.478 93.2273 50.9939 95.0811 50.5546C103.484 48.671 104.382 37.4835 96.2401 39.7121C94.488 40.402 93.7112 37.96 95.5204 37.4661C99.5903 35.786 104.618 38.5928 104.199 43.2733Z" fill="#010101"/>
<path d="M92.582 33.9222C85.1047 32.0882 76.5602 26.4051 75.2102 18.3967C75.4162 17.2998 77.1236 17.1186 77.4263 18.1982C79.4936 25.2462 85.9038 29.5494 92.5522 31.5075C94.2572 31.5547 94.5996 34.009 92.582 33.9222Z" fill="#010101"/>
<path d="M67.4028 18.6896C67.4375 23.7001 70.4081 28.3632 74.9794 30.428C76.3096 31.6887 74.421 33.1926 73.1504 32.113C67.6633 29.3286 64.7275 23.4941 65.0576 17.4512C65.3678 15.1159 67.919 15.925 67.4028 18.6896Z" fill="#010101"/>
<path d="M38.6474 102.849C38.6176 104.114 38.8062 106.872 36.9747 106.676C36.3345 106.542 35.9299 105.973 36.0664 105.231C36.672 101.941 35.9672 98.7664 35.2326 95.6023C34.8752 94.0636 34.4062 92.5523 33.55 91.1849C33.148 90.5421 33.3415 89.8472 33.8801 89.5097C37.3147 88.2689 38.5481 100.471 38.6499 102.851L38.6474 102.849Z" fill="#010101"/>
<path d="M61.7619 62.6081C61.8463 69.3583 56.8829 69.5047 58.1709 66.5118C59.3323 65.1692 59.4614 63.5834 59.3819 61.9306C59.444 60.8758 58.2701 59.6598 59.2926 58.8036C61.4492 57.5876 61.7842 61.2704 61.7619 62.6105V62.6081Z" fill="#010101"/>
<path d="M75.5502 87.9761C75.6395 90.4255 71.644 90.4726 71.7383 87.9984C71.6911 85.477 75.5427 85.5068 75.5502 87.9761Z" fill="#030303"/>
<path d="M74.1654 103.243C74.1927 105.727 70.2245 105.606 70.3585 103.149C70.3808 100.682 74.2746 100.734 74.1654 103.243Z" fill="#030303"/>
<path d="M71.3958 119.906C68.924 119.94 68.9737 116.096 71.3958 116.101C73.9073 116.061 73.9519 119.978 71.3958 119.906Z" fill="#020202"/>
<path d="M70.6761 131.718C73.1826 131.654 73.205 135.515 70.7332 135.533C68.2689 135.607 68.182 131.694 70.6761 131.718Z" fill="#020202"/>
<path d="M79.3745 38.4736C79.2206 39.3745 79.4712 41.7892 77.9177 41.6427C76.1334 41.3871 77.0392 38.9724 77.0442 37.744C77.3841 35.5775 79.8882 36.4461 79.3745 38.4736Z" fill="#040404"/>
<path d="M70.6141 38.5879C70.5272 39.5881 70.6017 41.3922 69.1921 41.2508C68.5592 41.1987 68.1274 40.7594 68.1522 40.0422C68.187 39.0545 68.2689 38.0618 68.4079 37.0815C69.0332 35.1955 71.3015 36.1484 70.5918 38.583C70.5992 38.583 70.6091 38.583 70.6166 38.583L70.6141 38.5879Z" fill="#020202"/>
<path d="M14.9373 37.5405C16.5181 36.2252 18.0891 34.8478 18.228 32.7136C18.367 30.562 16.466 29.0134 14.3094 29.3931C13.9149 29.4179 13.0165 29.9142 13.0612 29.1821C13.3763 27.636 12.6988 24.4173 15.1135 24.6208C20.8388 25.0551 26.5665 25.4447 32.2893 25.8517C34.3193 25.5167 32.6194 34.9943 32.7757 36.6173C32.0933 46.3257 31.5795 56.0762 30.8152 65.7697C30.6415 66.5018 30.3958 66.7202 29.6612 66.6706C25.554 66.3579 21.4468 66.0998 17.3396 65.802C13.1679 65.0823 10.376 67.1123 11.2743 61.3176C11.0336 58.4487 22.2385 55.7958 19.0321 50.4974C18.7591 50.1127 18.8038 49.8348 19.0321 49.4377C20.9554 45.941 18.8534 45.7574 18.9006 43.7819C19.7642 41.1935 18.7815 38.28 15.7935 37.8805C15.5205 37.8284 15.245 37.7936 14.9398 37.538L14.9373 37.5405Z" fill="#153C8D"/>
<path d="M91.7854 75.5476C91.0359 74.3937 90.3063 73.3613 89.2491 72.6664C89.949 71.5099 90.5297 70.5123 90.346 69.0431C90.2343 66.4299 90.2145 63.8092 90.5669 61.201C90.5197 59.7095 92.0584 55.503 93.7013 57.9847C94.0388 61.814 93.4779 65.7549 93.4978 69.6189C93.1305 71.7606 95.7363 72.0385 96.0465 69.9415C97.0813 67.837 99.7219 58.96 102.462 59.7045C102.951 59.9974 103.157 60.5011 102.946 61.2854C102.007 64.2212 101.462 67.4573 100.245 70.2542C99.702 71.0508 98.486 71.0086 97.6025 71.438C95.4782 72.4679 93.5226 73.7186 91.7854 75.5501V75.5476Z" fill="white"/>
<path d="M2.53876 47.7876C2.22855 45.9933 2.1144 43.9881 3.88632 43.0972C7.00085 41.5709 10.2668 40.5336 13.7163 40.1092C17.1286 39.3523 17.7937 43.3751 15.9225 43.4322C11.1527 43.7771 6.53925 45.0378 2.54125 47.79L2.53876 47.7876Z" fill="white"/>
<path d="M2.94826 54.2473C0.771813 48.2093 12.1256 45.8319 16.3196 45.812C18.3819 46.0924 17.2577 49.2268 15.4361 48.8868C10.8897 49.4973 6.65342 51.3909 2.94826 54.2473Z" fill="white"/>
<path d="M3.04752 40.7767C3.13686 36.7067 10.2568 33.7609 13.4681 32.1354C14.3343 31.6341 16.193 31.3289 15.8307 32.8973C15.3592 34.4657 13.7734 35.2673 12.6293 36.2947C9.95159 38.8732 6.33328 39.2628 3.04752 40.7767Z" fill="#FEFEFE"/>
<path d="M96.0911 82.6925C88.6287 82.1242 104.149 75.7984 104.68 79.0221C105.125 80.6029 104.514 81.8239 102.921 81.9803C100.643 82.2036 98.3619 82.3798 96.0911 82.695V82.6925Z" fill="#FEFEFE"/>
<path d="M104.472 75.8381C97.9202 75.0415 92.7979 80.2456 93.2819 77.8533C94.6319 74.7884 104.564 69.1301 104.472 75.8381Z" fill="#FEFEFE"/>
<path d="M53.9148 46.9362C50.3064 44.6332 49.8622 38.3818 53.2125 36.6223C52.6714 40.1612 52.9419 43.4966 53.9148 46.9362Z" fill="#FCFCFC"/>
<path d="M120.97 122.481C119.352 120.027 117.808 117.526 115.16 115.992C113.791 114.476 113.567 112.043 112.649 110.209C116.362 110.713 120.412 115.009 122.114 118.377C122.864 119.789 121.521 121.206 120.97 122.479V122.481Z" fill="white"/>
</g>
<defs>
<clipPath id="clip0_898_3404">
<rect width="129.388" height="190.46" fill="white"/>
</clipPath>
</defs>
</svg>
