<svg width="123" height="207" viewBox="0 0 123 207" fill="none" xmlns="http://www.w3.org/2000/svg">
<g clip-path="url(#clip0_898_3372)">
<path d="M94.299 0.963623C95.0342 1.46405 95.8599 1.16326 96.6431 1.2378C97.5434 1.83139 98.5289 2.10823 99.6024 2.29456C103.435 2.96002 106.102 6.1516 106.11 10.0645C105.758 25.3862 106.864 40.9608 105.7 56.1654C100.729 66.158 107.33 70.6406 105.305 76.723C104.056 79.5046 103.952 82.4913 104.658 85.4619C105.02 86.9871 104.789 88.3527 104.306 89.854C102.343 95.9603 102.759 102.016 105.263 107.899C107.508 121.767 105.337 136.351 106.171 150.454C106.232 155.802 102.415 159.174 97.5327 159.182C74.857 159.225 52.1838 159.212 29.5081 159.19C25.5232 159.347 21.597 157.077 20.7366 152.948C20.6674 151.929 20.2518 151.082 19.6925 150.273C19.6925 149.565 19.6925 148.86 19.6925 148.152C22.2123 128.885 19.791 108.444 20.5955 88.8025C21.6076 80.6679 24.5084 72.7275 21.7115 64.537C18.9759 47.2295 21.581 29.379 20.5076 11.8826C20.3637 4.98836 24.5803 2.00974 30.2859 2.0683C50.5111 2.27858 70.7416 2.14549 90.9695 2.16412C92.2587 2.16412 93.4413 2.06564 94.299 0.963623Z" fill="#BEBEBE"/>
<path d="M19.6898 150.273C22.5719 151.165 19.6632 158.344 29.1245 158.748C51.8376 158.799 74.5533 158.674 97.2663 158.778C101.856 158.818 105.841 155.786 105.769 150.39C105.14 136.57 106.605 122.419 105.212 108.751C101.595 101.558 102.301 94.435 104.573 87.0297C103.387 82.816 103.561 78.7114 105.66 74.7958C105.979 74.1995 105.665 73.7896 105.468 73.3184C103.353 68.2609 102.564 62.6523 104.655 57.4377C105.779 55.7448 105.726 53.8682 105.723 51.957C105.7 38.1259 105.713 24.2922 105.71 10.4611C105.71 5.8641 102.937 2.85619 98.3664 2.54209C95.9025 2.51281 96.342 -0.377978 98.6781 0.0425969C104.08 0.34605 108.123 4.52784 108.142 9.9261C108.171 18.3216 108.147 26.6613 108.15 35.0648C118.301 31.245 119.737 40.8357 118.791 48.7521C118.365 53.1974 119.066 57.5762 119.46 61.9762C120.35 74.6121 121.769 87.2054 122.435 99.8546C122.494 108.003 124.654 116.8 120.089 124.131C116.767 130.2 112.756 135.827 108.925 141.569C108.384 142.378 108.11 143.163 108.134 144.145C108.193 146.496 108.163 148.846 108.15 151.197C108.121 156.755 103.944 161.211 98.3664 161.101C95.7108 161.048 93.9794 162.028 92.2986 163.811C76.6389 181.494 78.2478 182.671 77.2089 205.097C77.5472 206.987 74.9289 207.908 74.7104 205.757C75.419 182.836 75.0168 178.763 91.4036 161.189C70.5684 161.189 49.7732 161.192 28.9407 161.189C23.8771 161.189 19.7644 158.096 18.7202 153.534C18.2594 151.513 18.4272 150.946 19.6898 150.273Z" fill="black"/>
<path d="M94.299 0.963587C94.3523 2.12948 93.6784 2.5261 92.6369 2.52876C71.4714 2.53143 50.3086 2.52876 29.1431 2.52876C23.9597 2.52876 20.979 5.50739 20.979 10.6847C21.1548 27.4678 20.6354 44.3334 21.1655 61.0738C24.1674 69.1233 23.7918 77.2127 21.4079 85.3128C20.2145 105.444 21.3599 125.832 20.9897 146.043C21.3573 147.845 18.968 149.229 18.5524 146.93C18.3873 127.245 18.5577 107.547 18.4832 87.8602C18.4832 85.6375 19.3622 83.6278 19.8443 81.5276C21.4372 74.2847 21.9166 58.8512 13.2278 56.2532C7.90043 54.9116 7.37036 61.4146 7.54616 65.1465C6.6858 79.2437 1.26524 92.7101 2.59974 106.959C3.52669 121.615 1.88588 136.679 6.2676 150.883C14.3385 178.281 15.689 177.538 7.69533 205.967C7.34372 207.673 4.68805 206.979 5.31934 205.299C7.4849 197.132 9.70107 188.974 10.7585 180.565C10.6627 168.76 4.74132 157.79 2.52249 146.267C-0.306317 131.757 0.908313 116.853 0.0319678 102.16C-0.471465 88.1956 5.35663 75.0034 5.27939 61.0233C5.07695 53.6712 13.4488 51.3234 18.3074 56.2745C18.8401 41.0886 18.31 25.6897 18.4991 10.4292C18.3526 4.33351 22.9501 -0.0213031 28.8235 0.0425817C49.9916 0.0425817 71.1624 0.0425817 92.3306 0.0425817C93.1377 0.0425817 93.9714 -0.0452599 94.299 0.963587Z" fill="black"/>
<path d="M101.451 80.6892C101.451 103.972 101.451 127.256 101.451 150.539C101.451 153.731 99.8288 155.378 96.6457 155.378C74.4547 155.384 52.2664 155.384 30.0754 155.378C26.911 155.378 25.2835 153.712 25.2835 150.513C25.2835 103.901 25.2835 57.2887 25.2835 10.6768C25.2835 7.49317 26.9376 5.81353 30.0888 5.81087C35.4587 5.80555 40.8287 5.80821 46.1986 5.81087C48.4787 5.55799 48.1244 7.24562 48.1431 8.91461C48.167 10.9962 49.2272 12.0982 51.3288 12.1434C59.184 12.1754 67.0391 12.1434 74.8943 12.1488C77.6112 12.1488 78.5861 11.1745 78.5888 8.49669C78.5781 7.42662 78.3757 5.77094 79.8993 5.81353C85.802 5.80821 91.7046 5.74166 97.6047 5.85612C99.9194 5.90137 101.446 7.91907 101.446 10.4345C101.446 33.851 101.446 57.2674 101.446 80.6838L101.451 80.6892Z" fill="black"/>
<path d="M108.155 137.786C108.235 129.023 107.99 120.244 108.217 111.487C108.286 109.861 107.884 108.583 107.226 107.161C104.834 101.989 104.434 96.5805 106.006 91.105C106.832 88.2222 108.48 85.9756 111.77 85.6083C113.832 85.3793 114.562 85.8638 115.273 87.8229C117.249 95.4758 117.606 103.483 120.035 111.066C122.353 121.197 113.113 129.755 108.155 137.789V137.786Z" fill="#FEFEFE"/>
<path d="M117.707 69.7755C113.648 67.7312 110.63 69.5066 107.631 71.9342C105.428 66.8101 104.956 60.3445 108.456 55.7022C110.198 52.9684 115.936 52.0395 116.36 56.192C116.826 60.6719 117.252 65.1571 117.707 69.7755Z" fill="#FEFEFE"/>
<path d="M119.78 98.0844C118.68 90.3704 117.43 77.7238 106.797 85.0786C105.111 80.3538 107.79 72.5944 113.568 71.4365C115.15 71.1197 116.096 71.4844 116.879 72.9059C117.838 74.6441 118.195 76.5739 118.36 78.5091C118.823 85.028 119.564 91.5629 119.78 98.0844Z" fill="#FEFEFE"/>
<path d="M108.155 52.476C108.515 49.9872 107.279 37.4817 108.944 37.4684C118.237 33.3745 116.431 45.4966 116.25 50.9588C116.24 51.2383 116.285 51.6695 115.763 51.4512C113.123 50.3465 110.67 50.8842 108.153 52.4787L108.155 52.476Z" fill="#FEFEFE"/>
<path d="M27.9072 151.67C27.3718 104.909 27.9045 57.845 27.7261 10.9829C27.7261 8.82675 28.2455 8.29438 30.3711 8.29438C35.0751 8.29171 39.7791 8.31833 44.4805 8.27308C46.9764 7.78862 44.0383 14.2277 50.9985 14.5684C59.2505 14.6216 67.5052 14.6243 75.7573 14.5657C82.6348 14.2516 79.7821 7.8951 82.1394 8.27841C86.9313 8.30769 91.7233 8.28905 96.5152 8.29704C98.4783 8.2997 99.0084 8.85337 99.0084 10.8524C98.8219 57.7572 99.3653 104.87 98.8272 151.673C97.522 141.124 98.7846 129.83 98.3558 119.033C98.3505 117.823 97.7778 117.027 96.6377 116.646C95.7507 115.786 94.6826 115.562 93.4706 115.565C73.4106 115.584 53.3479 115.584 33.2878 115.565C32.0812 115.565 31.0024 115.762 30.118 116.638C28.384 117.223 28.3787 117.223 28.376 119.145C27.9472 129.902 29.2124 141.164 27.9045 151.673L27.9072 151.67Z" fill="#FEFBDA"/>
<path d="M96.7043 116.483C98.0442 116.348 98.9098 116.398 98.8193 118.104C98.7873 129.292 98.7101 140.485 98.8299 151.673C98.6648 152.512 98.0095 152.767 97.2983 152.919C75.0008 152.988 52.6766 152.919 30.3684 152.943C29.3243 152.943 28.2908 152.943 27.9099 151.67C27.9259 143.751 27.9445 135.832 27.9578 127.916C27.9632 124.82 27.9445 121.722 27.9632 118.626C27.9791 116.209 27.6275 116.507 30.0461 116.486C31.0237 117.322 32.1824 117.399 33.4077 117.396C54.3547 116.56 76.1622 119.001 96.7043 116.486V116.483Z" fill="#FEFEFE"/>
<path d="M67.0498 94.0224C67.175 95.8751 66.7914 97.5574 65.337 98.8351C64.751 99.3515 65.1959 99.8306 65.3477 100.27C65.987 102.479 68.7732 111.317 66.8899 112.637C65.7286 113.254 64.8735 111.902 65.0227 110.877C64.8123 107.63 64.0798 104.494 63.1235 101.396C62.5988 98.9682 58.9469 101.428 57.125 97.1794C55.1672 93.2664 58.9203 91.9621 57.6603 90.2319C56.3818 88.5975 50.5484 80.0822 48.5826 81.493C43.5509 84.1788 38.4846 86.7954 33.429 89.436C30.3045 91.7066 29.0872 88.8797 30.9891 87.9214C36.4922 85.0466 41.7529 82.2729 47.3333 79.3609C42.6959 75.8924 37.4751 73.4063 31.7189 73.0868C30.8532 73.0735 30.2166 72.7275 30.2859 71.7506C31.3194 67.7471 46.6514 74.9661 48.5799 77.1701C49.5468 77.8862 50.2154 77.9234 51.2462 77.3724C56.7014 74.4497 62.1992 71.6068 67.6837 68.7347C68.5787 69.1127 68.9356 69.9272 69.2979 70.7337C68.1605 71.8996 66.6236 72.4214 65.2385 73.1587C48.1697 83.0209 51.4034 75.9829 59.6022 88.1849C60.2015 89.1512 60.8994 89.6436 62.074 89.5611C64.466 89.3721 67.119 91.5256 67.0524 94.0251L67.0498 94.0224Z" fill="black"/>
<path d="M69.2792 70.6379C66.2693 67.449 64.8442 62.9238 62.5242 59.1919C62.1912 58.5664 61.6505 58.6995 61.1418 58.6968C55.7931 58.6915 50.4445 58.6941 45.0958 58.6915C44.3047 58.6915 43.487 58.75 42.9436 57.9861C44.5844 57.4777 45.578 54.9968 46.3158 55.3295C51.1184 55.4892 55.9796 55.6569 60.7555 55.3003C61.7517 54.5842 62.6973 54.9169 63.6323 55.4387C64.3488 55.6463 64.6418 56.2532 64.9641 56.8361C66.6129 59.8201 68.299 62.7854 69.8972 65.796C70.3314 66.6105 70.6777 66.7383 71.4981 66.2938C74.5347 64.6461 77.6112 63.0756 80.6717 61.4731C81.303 61.143 81.9343 60.8156 82.6828 60.9008C83.9587 61.4252 84.1824 61.8484 83.8149 63.0356C82.6988 69.6344 82.198 76.3237 81.3883 82.9677C82.19 86.689 79.505 87.0749 77.1184 88.7146C76.567 89.428 75.8239 89.8193 74.9582 90.003C72.1347 90.8628 69.7161 92.7527 67.0498 94.0224C66.7221 92.9736 66.2427 92.0047 65.5235 91.1662C65.6886 90.5221 66.2586 90.3118 66.7621 90.0536C69.5936 88.5949 72.3345 86.9578 75.2032 85.5737C76.7961 84.807 77.6218 83.8275 77.8136 81.887C78.1093 76.6191 79.4411 71.5296 79.4571 66.2565C77.6245 66.7596 69.9239 72.0594 69.2792 70.6353V70.6379Z" fill="#4AB7FE"/>
<path d="M63.6323 55.436C62.6734 55.3908 61.7144 55.3429 60.7555 55.2976C52.9883 41.1604 45.2077 27.0286 37.3765 12.926C36.937 12.1354 36.5854 11.3076 37.579 10.7433C38.5699 10.1816 39.0893 10.8737 39.5368 11.6883C44.2142 20.1636 48.9182 28.6257 53.5716 37.1144C54.0697 38.0221 54.4666 38.1099 55.3563 37.6414C67.7929 31.0906 80.2509 24.577 92.7035 18.0554C94.5894 16.6393 96.3154 19.1761 94.0273 20.1929C81.4788 26.7198 68.9782 33.3399 56.4058 39.8242C55.5907 40.2421 55.4735 40.5748 55.9263 41.376C58.4994 46.0583 61.243 50.6606 63.6323 55.436Z" fill="black"/>
<path d="M96.7043 116.483C96.6031 117.484 95.9904 117.777 95.0582 117.777C73.9486 117.766 52.8364 117.766 31.7269 117.777C29.1378 117.718 29.8943 114.83 32.225 115.272C53.0469 115.28 73.8687 115.28 94.6906 115.277C95.6095 115.277 96.5152 115.277 96.707 116.483H96.7043Z" fill="#030303"/>
<path d="M46.3158 55.3295C45.2583 56.2718 44.5951 58.1751 42.9436 57.9861C37.6189 54.169 34.3719 41.605 43.4763 40.9448C50.8786 41.4266 49.7706 50.9667 46.3158 55.3295Z" fill="black"/>
<path d="M74.9582 90.003C75.4936 89.263 76.3299 89.0261 77.1184 88.7147C81.026 95.7846 84.9362 102.854 88.8412 109.927C89.3499 110.75 90.0798 112.139 88.8172 112.658C88.2392 112.887 87.6692 112.821 87.3042 112.232C83.1143 104.864 79.0868 97.403 74.9582 90.0003V90.003Z" fill="black"/>
<path d="M81.1272 85.9942C80.8315 84.9508 81.2338 83.9685 81.3882 82.9677C85.714 80.6545 90.0452 78.3493 94.3709 76.0335C95.8733 75.0912 97.1039 77.5428 95.4844 78.2429C90.6951 80.8195 85.9138 83.4122 81.1272 85.9969V85.9942Z" fill="#010100"/>
<path d="M83.8148 63.0356C83.7909 62.1386 83.4553 61.4039 82.6855 60.9008C86.633 58.8272 90.5805 56.7563 94.5254 54.6774C95.2659 54.2861 96.0171 54.1556 96.4912 54.9781C96.9467 55.7687 96.6031 56.4129 95.8093 56.8228C91.8112 58.8911 87.813 60.962 83.8148 63.033V63.0356Z" fill="black"/>
<path d="M94.7945 135.377C94.7945 139.234 94.7971 143.091 94.7945 146.948C94.7945 148.447 94.5228 148.721 92.9965 148.724C85.2772 148.732 77.5579 148.732 69.8386 148.724C68.3257 148.724 68.038 148.436 68.0353 146.932C68.0273 139.173 68.046 131.416 68.0167 123.657C68.0113 122.39 68.5601 121.924 69.78 121.927C77.5446 121.945 85.3065 121.943 93.0711 121.927C94.2857 121.927 94.8291 122.393 94.8131 123.67C94.7625 127.57 94.7945 131.472 94.7945 135.375V135.377Z" fill="black"/>
<path d="M47.2214 136.133C42.5627 136.133 37.9013 136.125 33.2425 136.141C32.3156 136.144 31.4579 136.027 31.4499 134.893C31.4419 133.841 32.2623 133.644 33.136 133.644C42.4988 133.644 51.8642 133.644 61.227 133.644C62.082 133.644 62.9184 133.791 62.945 134.853C62.9717 135.88 62.2658 136.144 61.3335 136.141C56.6295 136.122 51.9255 136.133 47.2214 136.133Z" fill="#030303"/>
<path d="M44.1076 141.987C40.6475 141.987 37.1874 141.987 33.7247 141.987C32.7737 142.021 31.4632 142.056 31.4446 140.813C31.4046 139.878 32.0545 139.5 32.9282 139.5C40.4264 139.498 47.9246 139.5 55.4229 139.5C56.3019 139.5 56.9598 139.886 56.8985 140.81C56.8399 141.71 56.1634 142.003 55.2843 141.997C51.5579 141.976 47.8314 141.989 44.1023 141.989L44.1076 141.987Z" fill="#030303"/>
<path d="M44.1502 127.879C47.8314 127.879 51.5126 127.895 55.1938 127.868C56.0861 127.863 56.8879 128.001 56.8932 129.045C56.8985 130.04 56.15 130.325 55.2337 130.325C47.8714 130.314 40.509 130.314 33.1466 130.325C32.2463 130.325 31.4739 130.101 31.4499 129.09C31.4259 128.046 32.1957 127.863 33.1067 127.868C36.7879 127.895 40.4691 127.879 44.1502 127.879Z" fill="black"/>
<path d="M69.2792 70.6379C69.9851 70.779 70.5684 70.4649 71.1651 70.1535C74.0578 68.6335 76.9559 67.1269 80.0937 65.4899C79.4411 71.5855 78.6766 77.1595 78.0267 83.1593C77.9308 84.1123 77.5765 84.658 76.7375 85.0998C72.9817 87.0882 69.2579 89.1379 65.5235 91.1662C64.1756 90.1334 62.708 89.5079 60.9686 89.8486C60.4811 89.9444 60.2627 89.6915 60.0257 89.3269C57.7482 85.8292 55.0499 82.6855 51.8935 79.808C57.7322 76.7283 63.5071 73.6831 69.2792 70.6379Z" fill="#FEFBDA"/>
<path d="M59.1067 95.0286C58.9815 91.451 64.5432 91.3765 64.5725 94.9088C64.5992 98.5103 59.2026 98.6088 59.1067 95.0286Z" fill="#4AB7FD"/>
<path d="M46.6035 47.7219C46.9764 48.7574 44.049 55.979 42.9782 54.4458C34.9952 44.4079 46.1986 39.0762 46.6035 47.7219Z" fill="#FD4447"/>
<path d="M70.5152 135.372C70.5152 132.09 70.5392 128.808 70.4992 125.526C70.4886 124.716 70.6244 124.389 71.5567 124.397C78.1253 124.442 84.6939 124.437 91.2625 124.402C92.1308 124.397 92.3785 124.618 92.3732 125.502C92.3359 132.066 92.3386 138.63 92.3732 145.194C92.3785 146.035 92.1947 146.317 91.2918 146.312C84.6779 146.272 78.0667 146.278 71.4528 146.307C70.7016 146.309 70.4886 146.107 70.4992 145.354C70.5392 142.027 70.5178 138.702 70.5178 135.375L70.5152 135.372Z" fill="#FEFEFE"/>
<path d="M43.2766 48.6642C41.2388 48.5658 41.3481 45.3183 43.4071 45.4354C45.5407 45.4008 45.4421 48.8053 43.2766 48.6642Z" fill="#030101"/>
<path d="M82.1261 144.228C70.7815 144.513 70.4086 135.83 75.8905 128.307C77.4327 125.805 78.674 125.651 80.5652 127.908C81.7798 129.713 82.3205 127.402 83.4846 126.83C86.4652 124.405 88.9451 132.252 89.9786 134.198C92.1388 139.62 87.8743 144.364 82.1261 144.231V144.228Z" fill="black"/>
<path d="M78.2398 129.148C81.9343 133.144 80.741 134.06 84.4382 129.274C85.8899 130.498 86.38 132.862 87.4454 134.483C90.482 140.392 82.6109 143.224 78.0507 141.292C71.8683 139.093 76.1675 132.942 78.2398 129.146V129.148Z" fill="#4AB7FE"/>
<path d="M84.8164 135.989C84.9016 137.44 82.6402 137.483 82.6215 136.101C82.467 134.632 84.8084 134.501 84.8164 135.989Z" fill="#040B0F"/>
<path d="M80.1949 136.125C80.3095 137.344 78.0294 137.477 78.0294 136.136C77.8429 134.619 80.2429 134.424 80.1949 136.125Z" fill="#03070A"/>
</g>
<defs>
<clipPath id="clip0_898_3372">
<rect width="123" height="207" fill="white"/>
</clipPath>
</defs>
</svg>
