<svg width="207" height="245" viewBox="0 0 207 245" fill="none" xmlns="http://www.w3.org/2000/svg">
<g clip-path="url(#clip0_898_3148)">
<path d="M195.263 88.1668C196.569 90.9983 194.495 90.2002 195.007 91.768C200.676 107.196 204.622 123.181 206.93 139.454C207.025 140.107 206.893 140.696 206.295 141.028C205.849 141.279 205.849 141.583 205.934 142.007C206.703 145.896 207.155 149.821 206.953 153.792C207.139 162.398 199.854 169.787 191.153 166.769C191.858 177.867 192.626 188.908 193.439 199.993C193.521 201.095 193.278 201.501 192.222 201.9C187.972 203.502 183.555 204.44 179.084 205.153C177.301 205.438 177.295 205.409 177.295 207.186C177.554 208.013 176.644 211.186 177.975 210.838C179.435 210.534 181.497 210.128 181.456 212.263C181.598 215.421 181.728 218.582 181.87 221.74C181.525 227.184 184.886 242.108 177.156 242.685C167.677 243.876 158.103 244.183 148.557 244.138C139.663 243.603 130.854 243.068 121.91 243.28C119.62 243.258 117.341 243.062 115.077 242.678C105.358 240.832 105.886 227.118 113.461 222.465C117.79 219.529 123.108 218.74 128.233 218.788C128.654 218.8 128.749 218.686 128.755 218.275C128.783 216.403 128.85 214.534 128.904 212.662C129.217 208.887 133.542 213.682 132.691 209.542C132.454 208.573 133.34 205.194 132.021 205.27C126.554 204.82 120.936 204.358 115.82 202.22C113.673 201.469 115.112 192.997 114.764 190.656C114.811 186.833 114.897 183.014 115.023 179.194C115.637 159.262 116.648 139.35 117.815 119.443C111.51 121.613 105.326 120.524 99.1573 118.937C96.4855 118.249 93.8992 117.29 91.3128 116.33C89.8394 115.646 89.5612 114.069 89.1122 112.609C89.2798 114.955 87.9898 117.249 88.7518 119.374C91.6322 123.805 93.1878 128.708 93.8202 133.93C95.0248 143.663 92.3815 154.66 84.0186 160.558C82.4503 162.173 80.0916 159.607 82.0646 158.334C93.3775 150.213 93.3838 132.702 86.6397 121.6C84.3379 118.408 86.5638 114.807 86.2381 111.256C86.2381 110.832 86.1528 110.699 85.7196 110.591C82.8455 109.875 81.603 107.962 82.0614 104.988C77.2744 105.821 72.3705 107.015 67.5993 105.403C67.0808 105.343 66.4769 104.665 66.0437 105.191C65.6611 105.634 65.1394 105.742 64.6019 105.58C57.3077 103.924 49.596 104.383 42.2385 105.422C40.3889 106.277 38.9913 105.568 37.4642 104.412C33.5594 101.488 29.136 99.1508 24.2321 98.4636C19.2491 97.7066 18.7495 104.07 18.4839 107.658C18.2879 111.285 18.6926 114.87 19.2743 118.439C19.366 119 19.4103 119.523 19.0562 120.026C16.1473 124.131 14.5569 128.749 13.874 133.69C12.6156 142.596 14.8194 152.95 22.6132 158.312C23.4037 158.854 23.606 159.728 23.1476 160.431C22.6701 161.159 21.769 161.292 20.9343 160.722C7.9962 151.369 8.13848 132.049 15.9703 119.352C16.2074 118.959 16.3402 118.62 16.2612 118.116C15.5561 113.543 15.1956 108.95 15.8722 104.336C18.1867 88.1605 32.6077 98.188 40.8789 102.736C48.1511 101.308 55.5023 101.327 62.8977 102.169C58.7241 94.7959 67.5582 89.4115 73.8534 88.3093C76.8571 87.5809 79.9114 87.2641 83.0005 87.2261C83.3704 87.223 83.6992 87.2293 83.9806 86.8809C84.2589 86.5357 84.7236 86.5135 85.1442 86.4882C88.5336 86.3076 91.9199 86.0986 95.3157 86.0606C99.0529 86.0194 102.79 86.0004 106.521 86.2569C107.179 86.3013 107.454 86.0701 107.726 85.4841C111.065 77.9302 115.317 70.6614 120.111 64.0893C119.421 60.7574 120.164 57.6028 121.375 54.5242C121.571 54.0238 121.505 53.7736 121.138 53.403C110.48 42.5646 112.367 24.4384 121.495 13.2168C122.678 11.7251 124.069 10.4296 125.622 9.32111C127.183 8.16822 128.941 10.5183 127.357 11.6807C123.121 14.8606 120.487 19.1681 118.738 24.071C115.532 32.8285 116.073 43.4926 122.551 50.657C122.915 51.0656 123.111 51.1574 123.43 50.6031C123.607 49.843 125.536 48.5951 125.078 48.0693C122.267 44.7881 121.527 40.8733 121.714 36.7052C121.878 33.0312 122.763 29.5314 124.398 26.2279C125.343 24.0394 128.211 25.4171 127.022 27.5328C123.734 34.1397 122.457 46.7042 131.933 48.4082C140.359 50.0584 149.18 49.3204 157.322 46.6662C158.624 46.245 160.177 45.0889 161.04 46.8151C161.489 47.2237 161.353 47.6703 161.1 48.1042C157.957 50.7362 153.199 50.923 149.278 51.7782C142.55 52.6777 135.474 53.0388 128.967 50.7805C128.056 50.4321 127.436 50.6 126.839 51.3443C124.787 53.6912 120.866 62.2808 124.259 64.3902C130.797 66.8258 137.864 67.4181 144.779 67.1425C147.27 67.0634 149.762 66.7973 152.238 66.4426C153.597 66.2462 154.049 66.4743 154.641 67.5606C155.912 71.1808 143.122 70.4112 140.83 70.636C134.743 70.4587 128.755 69.7365 123.013 67.5543C121.954 67.1521 121.941 67.1647 121.233 68.0642C117.151 73.3662 114.207 79.4062 111.248 85.3764C110.827 86.2094 110.865 86.2728 111.785 86.4185C115.314 86.2791 115.975 89.5192 113.291 89.9436C105.867 89.2817 98.6387 88.9428 91.1484 89.3228C97.5258 95.537 97.6365 105.368 94.4019 113.166C94.1237 113.888 94.1743 113.989 94.9173 114.265C99.4134 116.013 115.592 120.523 117.907 114.655C118.438 105.137 119.042 95.5877 120.167 86.1303C120.676 84.2996 123.437 84.7272 123.418 86.5832C123.136 91.0205 122.551 95.4483 122.305 99.8983C120.569 123.311 119.405 146.764 118.511 170.224C118.207 179.64 117.853 189.041 117.907 198.454C117.885 199.661 117.976 199.771 119.149 200.098C125.505 201.849 132.141 202.245 138.705 202.397C139.872 202.413 139.888 202.384 139.888 201.2C139.888 195.527 139.897 189.852 139.881 184.179C140.049 182.624 139.448 179.419 141.715 179.349C143.068 179.301 143.492 180.85 143.35 182.003C143.35 188.892 143.35 195.778 143.35 202.666C143.375 203.227 143.179 204.104 143.963 204.13C156.851 204.24 169.805 203.746 182.496 201.323C184.14 200.725 190.378 200.323 190.16 198.267C189.556 190.833 189.114 183.39 188.579 175.951C188.061 171.184 188.418 166.224 187.055 161.603C187.024 160.545 184.595 162.955 182.246 161.866C177.222 159.981 179.752 153.317 180.34 149.368C180.381 147.616 176.957 150.223 176.723 146.181C174.041 130.874 171.563 115.529 168.647 100.263C168.644 98.3147 166.333 94.8751 168.796 93.8647C169.751 93.586 170.674 94.1022 170.978 95.1759C174.607 111.418 176.884 127.948 179.853 144.322C180.725 147.623 199.503 141.298 202.008 139.784C203.652 139.008 203.661 139.008 203.392 137.215C201.729 126.212 199.228 115.399 196.016 104.747C193.335 95.2931 181.978 64.1305 173.412 61.2166C172.198 63.1866 157.929 71.26 157.179 67.0855C157.126 65.8503 157.401 65.3974 158.669 65.0395C162.826 63.6111 172.802 60.9474 171.983 55.3508C171.569 52.0949 169.065 46.1785 165.277 46.6947C164.328 47.0241 163.607 46.7011 163.332 45.8713C163.004 44.6677 163.269 44.1388 164.445 43.6668C167.471 42.4474 169.542 38.7196 168.764 35.8817C166.81 30.1743 162.662 35.337 161.435 32.7271C161.087 31.9068 161.435 31.1657 162.396 30.7033C170.94 27.2478 174.765 38.3617 169.122 43.9234C170.687 44.484 172.208 45.0193 173.659 45.7256C174.041 45.9093 174.111 45.5799 174.237 45.3867C175.784 43.0112 176.742 40.4077 177.099 37.6015C178.446 26.2659 172.508 15.2439 163.794 8.32975C155.908 2.22962 145.01 1.65318 136.027 5.49189C134.38 5.85296 132.442 8.72566 130.937 6.98367C130.402 6.2742 130.573 5.40638 131.411 4.79826C152.272 -8.55806 177.437 7.89584 180.049 31.0358C180.713 36.6039 179.875 41.9027 176.855 46.7327C176.628 47.1001 176.615 47.249 177.026 47.4929C188.971 54.578 197.35 65.4006 203.035 77.9049C204.211 79.6374 201.467 81.4047 200.398 79.6089C194.77 67.0317 185.762 55.6327 173.456 49.0638C174.835 51.585 175.316 54.1663 175.404 56.9345C175.404 57.3209 175.505 57.6408 175.815 57.9132C179.862 61.4415 182.866 65.7901 185.519 70.4017C188.111 74.9087 190.328 79.6025 192.317 84.4073C192.528 84.9172 192.791 85.2498 193.373 85.3194C194.606 85.5633 195.045 87.0836 195.26 88.1763L195.263 88.1668Z" fill="black"/>
<path d="M53.7 244.981C44.2842 244.953 34.8399 245.26 25.4652 244.158C7.59466 241.953 -0.0569026 221.835 9.8407e-06 205.881C0.259278 189.842 5.39404 173.68 17.3773 162.553C18.1013 161.936 18.8981 161.974 19.4894 162.607C20.049 163.209 20.0237 164.131 19.3502 164.72C14.0953 169.312 10.592 175.102 7.92981 181.462C0.0158184 199.971 -0.170728 227.872 19.1289 239.277C27.8081 243.027 37.6539 241.63 46.8737 242.096C53.5862 242.159 60.2987 242.118 67.0112 242.007C76.054 241.868 86.3741 241.852 92.5207 234.136C107.697 215.725 103.846 187.182 90.0323 169.087C89.1628 167.241 83.9395 164.409 85.6532 162.604C86.235 161.945 87.095 161.939 87.8949 162.642C92.0148 166.243 95.145 170.611 97.6586 175.444C108.576 195.984 109.449 228.068 87.6673 241.712C77.1353 246.482 64.9529 244.481 53.7032 244.978L53.7 244.981Z" fill="black"/>
<path d="M163.339 45.8652C164.404 47.471 165.448 45.8209 166.725 46.4607C170.443 48.2945 174.187 55.538 171.151 59.0632C167.705 62.2305 163.225 63.9566 158.783 65.1982C157.701 65.4769 157.426 65.8063 157.322 66.861C156.443 67.4343 155.478 67.656 154.435 67.5641C153.875 66.6266 153.509 66.4524 152.336 66.6329C147.795 67.3266 143.23 67.5831 138.645 67.3646C135.35 67.0605 123.939 66.3796 122.88 63.0919C122.371 58.5343 124.221 53.8214 127.291 50.5053C127.512 50.2899 127.683 50.0967 128.094 50.2551C132.419 51.9084 136.944 52.2884 141.516 52.1839C144.694 52.1206 161.751 50.8948 161.027 46.8122C161.796 46.4987 162.561 46.182 163.329 45.8684L163.339 45.8652Z" fill="#00A5AC"/>
<path d="M195.263 88.1671C194.59 87.2866 194.59 85.4623 193.18 85.4686C192.645 85.4908 192.462 85.2532 192.282 84.8161C190.252 79.9259 188.017 75.1307 185.361 70.5413C182.872 66.237 180.141 62.1069 176.432 58.7401C175.584 57.9705 175.129 57.2737 175.132 56.0384C175.139 53.4888 174.392 51.0658 173.02 48.6777C185.588 55.0408 194.539 66.3415 200.306 78.9599C200.85 80.1191 201.081 80.2775 202.362 80.2236C203.857 82.7986 201.679 81.8548 202.368 83.9927C202.545 84.5026 203.003 84.9682 202.732 85.5858C201.919 85.9532 201.11 86.3206 200.297 86.6848C199.339 86.0102 199.326 83.3054 197.53 84.0148C195.931 84.7433 197.587 86.4726 197.448 87.6128L195.263 88.1639V88.1671Z" fill="#00A5AC"/>
<path d="M157.062 30.8398C150.938 29.744 145.474 24.9519 144.624 18.554C144.371 17.5025 144.7 16.1849 145.895 16.1247C146.685 16.0487 147.381 16.6378 147.454 17.5563C147.833 22.6746 152.073 26.6749 156.904 27.8056C159.045 27.7517 159.497 30.8747 157.066 30.8398H157.062Z" fill="black"/>
<path d="M53.2447 166.23C51.2908 165.891 44.0502 167.095 44.4802 164.08C44.613 163.3 45.2991 162.797 46.1781 162.917C50.7944 163.452 55.4865 163.513 60.0995 162.942C61.1018 162.784 61.848 163.253 61.9966 164.133C62.2432 167.111 55.2398 165.894 53.2447 166.227V166.23Z" fill="black"/>
<path d="M137.282 18.2084C135.999 27.3523 142.506 27.3681 140.956 29.8829C138.692 32.1127 135.85 27.403 135.158 25.4931C134.468 23.5231 132.919 16.514 135.964 16.2954C136.862 16.3746 137.352 17.0397 137.285 18.2084H137.282Z" fill="black"/>
<path d="M82.425 147.509C80.5785 146.673 71.1184 145.608 71.3429 143.768C71.0488 140.183 78.4127 143.933 80.3825 143.974C81.2994 144.205 82.2258 144.405 83.1301 144.674C84.8248 145.216 84.2683 147.718 82.425 147.506V147.509Z" fill="black"/>
<path d="M33.4708 139.128C30.328 138.358 26.8057 137.462 23.6028 136.667C22.3413 136.502 21.8386 134.817 22.8851 134.035C23.2708 133.731 23.7103 133.665 24.153 133.775C27.4634 134.599 30.7738 135.429 34.0779 136.281C35.7663 136.765 35.3616 139.226 33.474 139.128H33.4708Z" fill="black"/>
<path d="M72.9238 139.122C72.0859 139.138 71.4694 138.653 71.3524 137.966C70.8971 135.445 76.8476 135.549 78.5834 134.7C80.2402 134.558 83.2945 132.594 84.1039 134.824C84.3379 135.66 83.8415 136.401 82.8329 136.658C79.5351 137.472 76.231 138.371 72.9238 139.122Z" fill="black"/>
<path d="M33.591 142.121C34.4415 142.127 35.0422 142.653 35.1371 143.401C35.4912 145.754 28.9052 145.881 27.1472 146.723C25.6928 146.923 23.0242 148.475 22.3666 146.467C22.1326 145.586 22.5911 144.858 23.587 144.604C26.9164 143.793 30.2458 142.837 33.591 142.121Z" fill="black"/>
<path d="M45.1158 129.604C45.141 133.069 39.7344 132.961 39.7691 129.569C39.7312 126.139 45.2296 126.079 45.1158 129.604Z" fill="black"/>
<path d="M50.9398 137.95C50.9271 134.513 56.3433 134.564 56.2579 138.007C56.2737 141.529 50.8354 141.446 50.9398 137.95Z" fill="black"/>
<path d="M66.6413 129.576C66.6982 133.079 61.2125 132.996 61.3232 129.522C61.3137 126.104 66.7425 126.126 66.6413 129.576Z" fill="black"/>
<path d="M73.7617 109.296C75.2256 109.597 80.9706 112.701 79.3075 114.522C77.578 116.416 74.9726 112.52 73.0882 112.013C71.7729 111.418 72.4147 109.233 73.7617 109.299V109.296Z" fill="black"/>
<path d="M26.6224 115.082C22.1421 113.812 28.5384 110.293 30.2458 109.444C31.931 108.58 33.259 111.215 31.5643 112.051C29.7747 112.783 28.4183 114.534 26.6255 115.082H26.6224Z" fill="black"/>
<path d="M197.451 87.6159C195.33 84.1351 198.033 82.4596 199.418 84.6735C199.842 85.6269 200.297 86.5739 200.597 87.5779C200.974 90.1624 197.711 89.9185 197.451 87.6191V87.6159Z" fill="black"/>
<path d="M202.732 85.5858C202.346 84.227 201.211 82.5674 203.007 81.7914C205.141 81.5443 205.109 84.1351 205.783 85.5636C206.257 88.2589 203.054 87.9929 202.732 85.5858Z" fill="black"/>
<path d="M148.513 35.6886C149.335 38.0102 146.335 39.5114 145.693 36.9491C145.595 36.1161 145.535 35.2768 145.519 34.4407C145.99 31.8087 148.908 32.8063 148.541 35.6854C148.532 35.6854 148.526 35.6854 148.516 35.6854L148.513 35.6886Z" fill="#010101"/>
<path d="M136.621 35.3147C136.03 33.275 138.983 32.2203 139.47 34.3582C139.587 35.2704 139.644 36.1952 139.654 37.1169C139.663 37.8897 139.066 38.4471 138.304 38.4883C136.555 38.5833 136.732 36.5373 136.621 35.3147Z" fill="black"/>
<path d="M154.438 67.5607C155.399 67.3263 156.361 67.0919 157.325 66.8576C157.847 70.975 172.185 62.9903 173.469 60.8556C173.855 60.4059 174.057 60.485 174.446 60.8429C183.479 69.9646 188.276 82.3233 192.753 94.1308C197.926 108.415 201.498 123.165 203.81 138.178C203.92 138.805 203.759 139.157 203.155 139.454C200.041 141.342 181.487 147.797 179.66 144.68C178.082 135.359 176.504 126.035 174.87 116.723C173.583 109.495 172.442 102.226 170.744 95.0778C170.225 93.2186 167.421 93.8679 167.914 95.8158C171.155 110.822 173.419 126.025 176.106 141.136C176.441 143.084 176.773 145.032 177.111 146.976C177.304 148.909 179.347 148.38 180.763 148.443C180.239 151.613 179.271 154.549 179.473 157.736C179.635 161.502 183.783 163.117 186.673 160.903C187.087 160.574 187.109 160.754 187.236 161.163C189.563 173.515 189.098 186.263 190.42 198.764C190.461 199.284 190.299 199.48 189.812 199.642C185.784 200.994 181.633 201.802 177.447 202.435C166.32 204.079 155.058 204.408 143.824 204.348C142.537 204.586 143.34 200.44 143.094 199.553C143.043 193.592 143.002 187.631 143.141 181.671C143.416 178.807 140.172 178.855 140.207 181.604C140.049 188.303 140.115 195.002 140.207 201.7C140.216 202.476 140.008 202.647 139.258 202.635C132.135 202.381 124.594 202.286 117.872 199.816C117.192 191.537 117.992 182.675 118.109 174.224C119.077 146.546 120.541 118.873 122.744 91.2613C122.868 89.7125 123.095 88.17 123.215 86.6212C123.336 84.8444 120.518 84.5277 120.345 86.333C119.311 95.7873 118.723 105.295 118.131 114.784C115.877 120.828 98.3858 116.235 93.9055 114.037C97.4215 105.067 97.51 96.4841 90.7627 88.9492C98.1961 88.927 105.642 88.8225 113.034 89.7283C114.002 89.7948 114.625 89.2691 114.679 88.4329C114.754 86.2887 111.969 86.8651 110.458 86.4946C111.773 84.0621 120.465 64.7323 123.168 67.3612C132.657 70.8356 143.027 70.9655 152.924 69.4959C154.154 69.3059 154.53 68.7896 154.429 67.5544L154.438 67.5607Z" fill="#FEBB00"/>
<path d="M179.23 230.899C178.892 233.49 180.324 239.644 176.438 239.828C171.632 240.433 166.801 240.727 161.963 240.955C157.413 241.171 152.86 241.31 148.304 241.221C143.179 241.164 134.99 241.392 135.496 234.257C135.768 227.197 143.28 224.558 149.253 223.855C151.229 223.067 156.56 224.701 156.49 221.809C156.797 220.713 155.972 213.603 157.366 214.369C164.237 215.006 171.164 214.632 177.994 213.749C178.452 213.679 178.582 213.815 178.598 214.274C178.784 219.861 179.173 225.246 179.224 230.899H179.23Z" fill="#00A5AC"/>
<path d="M134.424 240.379C127.844 240.309 121.366 240.876 114.913 239.622C108.497 237.411 109.949 228.096 115.121 224.894C119.434 221.983 124.79 221.565 129.843 221.787C131.047 221.841 131.572 221.325 131.604 220.099C131.784 211.022 130.598 215.389 142.487 214.984C146.044 215.006 149.588 214.829 153.123 214.417C153.585 214.363 153.736 214.426 153.717 214.905C153.654 216.644 153.607 218.382 153.581 220.121C153.572 220.685 153.177 220.59 152.867 220.603C147.46 220.894 141.785 221.765 137.314 225.053C132.527 228.73 130.984 235.612 134.421 240.379H134.424Z" fill="#00A5AC"/>
<path d="M83.5474 90.194C91.0599 88.5438 95.1987 101.305 92.704 106.524C90.1335 108.384 81.663 108.729 86.1275 103.934C87.6293 102.844 86.627 100.757 84.8343 101.279C78.9755 102.426 72.225 104.925 66.635 101.678C64.3269 100.209 64.2605 97.6972 65.7497 95.7177C70.1319 90.932 77.4167 90.3397 83.5443 90.194H83.5474Z" fill="#00A5AC"/>
<path d="M204.044 151.845C204.082 154.372 203.829 156.973 202.773 159.453C200.534 164.995 190.982 167.076 190.069 160.422C189.42 158.696 191.068 155.588 189.104 154.705C186.976 154.195 186.54 157.717 184.902 158.563C181.668 160.415 182.253 155.487 182.736 153.679C183.226 152.497 183.182 148.411 184.311 148.158C190.644 147.392 196.708 145.65 202.513 143.014C203.867 141.871 203.987 150.8 204.05 151.848L204.044 151.845Z" fill="#00A5AC"/>
<path d="M140.371 212.032C139.869 211.756 135.354 212.371 135.603 211.145C135.863 210.208 135.044 205.241 136.119 205.488C137.086 205.773 140.039 205.016 140.292 206.024C140.368 208.143 147.251 207.025 148.994 207.234C150.622 206.958 149.503 210.223 149.85 211.25C150.04 212.564 142.129 211.851 140.371 212.032Z" fill="#FEFEFE"/>
<path d="M165.037 211.658C159.63 211.246 159.851 213.508 159.949 207.477C159.636 206.464 167.231 206.777 168.401 206.429C175.022 206.362 174.411 203.607 174.411 210.486C175.018 212.089 166.317 211.465 165.037 211.766C165.037 211.731 165.037 211.693 165.037 211.658Z" fill="#FEFEFE"/>
<path d="M157.034 211.446C152.56 210.477 152.639 213.644 152.762 207.686C152.649 206.708 155.855 207.382 156.636 207.126C157.511 207.088 156.825 210.572 157.034 211.443V211.446Z" fill="#FEFEFE"/>
<path d="M153.847 58.5468C153.341 64.932 147.153 63.7443 149.85 60.5263C150.54 59.9499 150.925 59.2468 150.884 58.3346C150.859 57.755 150.669 57.4826 149.996 57.6473C147.011 58.3789 144.014 59.0536 140.956 59.4083C139.129 59.2816 134.253 61.1186 133.95 58.4835C133.918 57.6631 134.471 56.9948 135.319 56.9568C140.087 56.7383 144.754 55.9148 149.389 54.7936C152.01 54.1602 153.866 55.7786 153.841 58.55L153.847 58.5468Z" fill="black"/>
<path d="M143.881 130.443C140.438 130.545 140.409 125.081 143.852 125.167C147.384 125.078 147.387 130.497 143.881 130.443Z" fill="black"/>
<path d="M146.575 83.2768C146.565 86.7291 141.099 86.7037 141.228 83.1881C141.263 79.7294 146.629 79.8529 146.575 83.2768Z" fill="black"/>
<path d="M141.225 150.064C141.206 146.59 146.546 146.622 146.572 150.039C146.632 153.501 141.159 153.571 141.225 150.064Z" fill="black"/>
<path d="M143.834 108.168C140.403 108.216 140.457 102.775 143.9 102.866C147.378 102.851 147.387 108.282 143.834 108.168Z" fill="black"/>
</g>
<defs>
<clipPath id="clip0_898_3148">
<rect width="207" height="245" fill="white"/>
</clipPath>
</defs>
</svg>
