<svg width="192" height="261" viewBox="0 0 192 261" fill="none" xmlns="http://www.w3.org/2000/svg">
<path d="M87.9996 118.205C92.5903 144.985 96.017 171.945 99.6268 198.868C99.8394 200.414 99.5647 201.425 98.0214 201.906C93.3195 203.648 92.7538 203.507 94.5914 208.506C96.0759 214.583 97.6192 220.646 99.0088 226.745C103.42 233.577 105.019 241.398 106.202 249.344C107.023 253.194 98.6688 254.222 96.1184 255.371C94.065 255.888 95.0426 252.765 92.8388 254.569C85.5996 258.782 77.9091 261.345 69.4143 260.733C60.5696 260.422 58.2448 249.946 65.1669 245.382C70.3756 241.696 77.1898 240.373 81.3718 235.26C82.7124 233.62 83.1669 232.12 81.9538 229.943C78.5696 223.87 75.5091 217.617 72.344 211.423C71.9418 210.634 71.5723 210.137 70.5129 210.33C63.4143 211.61 56.2503 212.022 49.0503 211.63C47.8568 211.564 47.5854 211.97 47.4546 213.005C46.5783 219.863 45.4078 226.679 44.2405 233.495C44.0639 234.526 44.0704 235.512 44.3516 236.553C45.9211 242.361 45.3881 248.221 44.7048 254.081C44.3091 256.222 44.9663 259.306 42.0661 259.633C40.1533 259.82 31.9593 261.542 31.7565 259.172C31.6552 258.003 31.0731 258.399 30.4388 258.592C23.6475 260.642 16.7222 261.483 9.64645 260.733C5.51021 260.281 0.670968 258.648 0.10857 253.891C-0.355735 250.388 0.64481 247.291 3.58105 245.062C6.29822 243.002 9.55816 242.269 12.7593 241.434C17.6966 239.807 26.4334 238.94 26.6426 232.274C26.6099 224.761 26.914 217.244 27.1658 209.731C27.1135 205.085 20.2731 209.917 21.2933 201.576C21.5026 191.443 22.1173 181.327 22.781 171.218C22.9151 169.159 22.4672 168.759 20.4857 169.204C18.4388 169.666 16.3298 169.437 14.2699 169.394C7.14835 167.554 5.61811 154.937 7.08623 148.769C7.24644 147.994 7.28568 147.434 6.61865 146.91C5.25843 145.836 5.12764 144.533 5.52328 142.844C9.44699 126.111 13.1516 109.323 17.9876 92.817C21.1462 83.9155 9.14944 82.5798 22.5489 68.4796C26.6132 63.0975 21.8296 58.835 29.592 51.8782C32.8617 48.8761 34.5947 43.4613 31.8873 39.5753C30.223 37.7714 29.5952 35.5354 30.0595 33.0604C30.1576 32.5432 30.2917 32.0816 29.8928 31.5316C27.12 27.6914 26.8617 23.3831 28.1761 19.0519C31.0012 9.74773 37.0633 3.52752 46.441 0.705509C47.9909 0.204618 51.6138 -0.279904 51.6497 2.02157C51.5974 2.93169 51.0023 3.318 50.126 3.39329C24.7298 6.43792 28.0813 42.0077 37.4753 24.5911C38.744 23.6221 40.4312 25.3506 39.5091 26.6471C34.8497 35.1262 37.6584 45.8315 48.223 46.9708C54.1053 47.9267 59.6966 47.0952 64.8988 44.0833C66.9162 42.5479 68.8159 45.6449 66.429 46.6303C65.0165 47.236 65.5527 48.4243 65.4644 49.4359C65.4383 49.7273 65.6116 49.7895 65.8633 49.7306C69.6366 48.958 66.4617 55.7675 74.0345 57.2341C77.2584 57.735 89.1048 64.515 87.5909 68.2766C87.3587 68.7284 87.5026 69.0885 87.7544 69.4814C92.3941 76.5659 95.8307 84.2986 99.8623 91.7072C103.06 86.7998 103.093 79.581 97.4949 76.6019C93.8263 74.4281 92.2339 71.2983 91.8612 67.2552C91.4917 63.5984 90.4519 59.2082 86.8355 57.5386C81.5614 55.1192 80.7767 50.5588 80.8682 45.5434C80.9435 41.497 82.3854 37.6306 82.5097 33.581C83.8928 18.8292 74.0148 1.76622 57.5287 3.24925C56.5511 3.32454 55.9069 2.94806 55.799 1.96592C55.8906 -1.78585 65.2813 0.83646 67.2922 1.66146C83.0394 7.33822 87.8394 25.5536 84.4879 40.6196C83.7326 43.9753 83.3598 47.3964 84.3832 50.8044C84.7887 52.1499 85.3838 53.3645 86.7276 53.9865C92.1391 56.491 94.284 61.0841 94.768 66.6823C95.0524 69.9888 96.3669 72.3852 99.3195 74.2513C106.349 78.3239 106.513 88.106 101.644 94.3557C100.977 95.0563 101.615 95.4819 101.827 95.9271C105.496 103.624 109.148 111.33 112.578 119.138C114.413 123.312 116.201 127.506 117.954 131.713C118.425 132.842 119.046 133.985 118.578 135.317C118.34 136.002 119.013 136.254 119.363 136.614C122.793 140.32 126.514 144.893 126.046 150.259C128.257 155.517 131.824 160.463 133.936 165.911C134.329 166.762 134.786 167.073 135.745 167.126C144.87 167.623 153.986 168.219 163.031 169.666C166.088 170.154 168.073 171.434 169.41 174.374C177.63 192.992 185.71 211.76 191.775 231.204C193.626 238.007 182.587 247.117 177.692 250.807C176.146 251.858 175.158 252.699 174.592 254.513C173.854 256.89 171.225 257.941 168.517 257.43C166.376 257.027 164.437 254.827 164.495 252.506C164.531 251.125 164.106 250.882 162.821 250.791C157.125 250.378 151.436 249.831 145.75 249.295C144.704 249.196 144.197 249.255 144.004 250.581C143.154 256.9 133.214 256.16 133.42 249.596C133.998 247.085 126.903 249.311 124.395 242.246C117.323 223.671 110.325 205.062 103.279 186.477C102.655 184.827 103.086 183.38 103.838 181.953C104.937 179.864 106.395 178.024 108.007 176.325C108.661 175.634 108.802 175.123 108.377 174.23C105.378 167.957 102.642 161.563 99.4797 155.366C97.7794 151.87 98.7571 147.051 103.328 146.533C103.766 146.452 104.368 146.648 104.306 145.826C104.267 145.289 104.204 144.893 103.524 144.838C96.5304 137.622 92.8781 127.123 88.1892 118.192H87.9832L87.9996 118.205Z" fill="black"/>
<path d="M54.6775 14.8941C54.1543 12.6909 57.1233 11.329 57.617 13.7941C57.8982 19.8474 61.5244 23.55 66.4355 26.3328C67.3184 26.8336 67.8088 27.4524 67.3805 28.4378C63.4306 32.3664 53.9058 18.695 54.6808 14.8941H54.6775Z" fill="#010101"/>
<path d="M71.4546 32.5202C68.9435 33.1455 68.659 29.5803 71.1767 29.5574C75.3358 28.9158 78.4486 33.2699 76.9871 37.7419C76.6208 39.8732 71.4154 45.5957 69.5974 42.8621C68.5609 40.6163 72.1217 40.3446 73.0176 38.7961C75.0056 36.9628 74.9925 32.1961 71.4546 32.5268V32.5202Z" fill="#010101"/>
<path d="M48.3538 15.7977C47.6802 23.1441 53.1669 22.6988 51.3456 25.1771C48.9162 27.197 46.3494 22.486 45.8328 20.4956C45.4568 18.7179 44.3353 12.1932 47.314 12.5468C49.1353 12.753 48.3505 14.6387 48.3538 15.8009V15.7977Z" fill="#010101"/>
<path d="M57.0775 32.9328C56.9565 33.8952 57.5222 35.4961 55.6879 35.5223C53.7914 35.5485 54.2132 33.928 54.1347 32.7494C54.0922 31.5414 54.0791 29.8685 55.7304 29.9831C57.3718 30.0944 57.0513 31.6854 57.0775 32.9295V32.9328Z" fill="#010101"/>
<path d="M46.1762 32.4351C45.568 29.7768 48.599 28.6669 49.0862 31.1878C49.1353 32.1077 49.1222 33.0309 49.1026 33.9508C48.7396 36.5011 45.532 35.7874 46.1762 32.4351Z" fill="#040404"/>
<path d="M26.3418 163.603C29.3107 163.691 36.6023 166.526 37.374 162.231C39.3489 152.74 41.1636 143.224 42.4748 133.618C56.3647 111.085 70.0225 88.178 79.6617 63.2742C81.4143 64.3415 82.8824 65.6903 84.3276 67.0784C85.0176 67.7397 84.4617 68.3224 84.2851 68.8691C79.9952 81.781 78.8573 95.7405 83.0197 108.832C88.0486 132.102 90.6775 155.795 94.0748 179.337C94.9151 185.436 95.6443 191.548 96.4748 197.644C96.635 198.822 96.4061 199.438 95.193 199.965C73.387 209.508 48.2524 211.832 25.4622 204.434C24.4584 204.11 24.1642 203.694 24.187 202.627C24.6056 189.613 25.1745 176.544 26.3385 163.603H26.3418Z" fill="#FE8FBC"/>
<path d="M113.167 184.683C112.523 184.928 112.009 184.732 111.486 184.608C109.59 183.966 108.727 187.25 110.734 187.413C113.026 187.584 112.964 189.914 113.667 191.532C114.383 194.102 116.018 195.303 118.722 195.522C127.596 196.158 136.529 197.362 145.426 196.799C147.326 196.478 147.077 194.498 146.63 193.054C144.109 188.009 149.18 192.308 149.226 188.811C148.922 186.621 145.946 187.649 144.413 187.4C143.84 187.4 143.406 187.358 143.121 186.703C140.747 181.226 138.334 175.765 135.82 170.043C144.955 170.589 153.62 171.172 162.589 172.596C164.705 172.946 165.911 173.873 166.794 175.798C174.942 194.053 182.718 212.536 188.842 231.58C189.28 233.063 189.123 234.333 188.273 235.587C185.504 239.215 178.68 248.879 174.017 248.643C167.559 248.165 161.098 247.687 154.644 247.157C147.646 246.584 140.662 245.873 133.662 245.379C130.209 245.137 128.031 243.556 126.821 240.331C119.988 222.227 113.206 204.103 106.278 186.035C105.293 183.275 108.187 181.105 109.567 179.036C110.083 178.404 110.316 178.44 110.643 179.193C111.44 181.033 112.31 182.84 113.16 184.68L113.167 184.683Z" fill="#FE8FBC"/>
<path d="M42.72 59.7451C53.6377 105.176 45.4503 91.1081 68.4007 59.9481C69.3456 58.5371 73.9821 58.9529 72.0432 61.2183C60.962 84.292 49.9723 108.112 35.5167 129.163C34.2154 129.883 32.4203 128.731 30.8345 128.442C28.2906 127.978 28.3527 127.928 28.5979 125.339C29.4481 116.395 30.1315 107.431 31.1189 98.5003C32.2045 88.7084 31.9102 78.9099 31.6977 69.1049C31.4132 64.6394 39.1396 61.2674 42.72 59.7451Z" fill="#FE8FBC"/>
<path d="M86.2306 72.6766C97.4394 92.0084 106.451 112.224 115.191 132.734C117.588 137.131 106.621 144.458 103.828 140.935C96.4486 130.181 91.6748 118.006 86.0573 106.312C81.2573 95.4622 83.3173 83.8599 86.2306 72.6733V72.6766Z" fill="#FEFEFE"/>
<path d="M42.5663 245.062C42.2197 248.686 41.8601 252.261 41.5462 255.839C41.4873 256.513 41.2159 256.811 40.5685 256.87C39.1233 256.69 34.7843 258.219 34.2938 256.697C33.1985 253.993 33.1952 254.042 30.5009 255.338C23.4317 257.941 15.4829 258.779 8.03117 257.45C1.89384 256.805 1.15488 249.485 6.55651 246.663C9.41428 245.121 12.6023 244.567 15.6922 243.729C20.2404 242.498 24.6317 241.025 28.1532 237.63C29.2094 236.612 30.7167 236.89 32.0246 237.414C34.8726 238.03 32.2699 242.737 35.8502 241.454C43.253 237.784 41.4579 236.704 42.5663 245.058V245.062Z" fill="#D2304D"/>
<path d="M64.1042 252.958C63.8688 245.369 79.1516 244.017 83.4644 237.358C84.0432 236.645 84.5369 235.856 85.0143 235.067C86.3288 232.805 90.6448 232.7 91.0993 235.653C92.3909 239.463 96.0138 233.95 97.4982 232.683C99.9179 229.678 102.406 244.862 102.664 246.466C103.191 249.815 103.152 249.822 99.9996 250.99C98.5053 251.393 96.7854 252.86 95.8176 250.781C95.2715 249.704 94.1925 249.282 93.2868 250.296C88.8432 255.345 65.2159 263.339 64.0977 252.955L64.1042 252.958Z" fill="#D2304D"/>
<path d="M32.7832 161.554C30.8312 161.272 15.3129 159.19 17.023 156.486C18.2067 147.863 19.8121 139.315 21.5451 130.79C21.7216 129.827 22.1402 129.628 22.9772 129.811C28.1794 130.937 33.3816 132.06 38.5838 133.18C39.2802 133.33 39.4993 133.608 39.3881 134.414C38.1751 143.201 36.4454 151.893 34.7091 160.585C34.4475 161.894 33.568 161.429 32.78 161.557L32.7832 161.554Z" fill="#D2304D"/>
<path d="M28.6732 73.5801C29.0786 79.1423 28.7909 84.6783 28.8628 90.211C28.853 102.812 22.5456 113.897 19.8644 125.948C17.8307 132.754 16.8203 139.737 15.5386 146.677C15.1527 149.093 12.5206 146.969 11.2159 146.628C8.32222 145.093 8.14892 144.697 8.87807 141.564C14.7767 118.781 18.0399 94.7845 28.6732 73.5801Z" fill="#FEFEFE"/>
<path d="M96.5304 229.141C91.7369 236.252 93.1822 228.899 86.6819 230.644C85.8644 230.85 85.58 230.644 85.2236 229.95C81.9309 223.52 78.6056 217.11 75.2672 210.703C74.8486 209.898 74.8388 209.537 75.8884 209.321C80.574 208.365 85.1484 207.013 89.641 205.376C90.2296 205.16 90.6808 204.879 90.9162 205.858C92.7277 213.64 94.7876 221.346 96.5337 229.141H96.5304Z" fill="#FEFEFE"/>
<path d="M30.0497 221.542C30.2198 203.121 27.483 210.366 43.7206 211.269C44.4563 211.338 44.7506 211.459 44.61 212.33C43.4165 219.683 42.2786 227.046 41.1309 234.408C41.0198 235.112 40.6961 235.594 40.0159 235.859C33.5059 240.233 38.2209 234.867 30.8672 234.137C29.8437 234.12 29.4285 233.816 29.4645 232.637C29.5691 228.941 29.5037 225.242 29.5037 221.542C29.6868 221.542 29.8666 221.542 30.0497 221.542Z" fill="#FEFEFE"/>
<path d="M51.1298 82.4194C49.3838 74.929 47.7325 67.7823 45.9015 60.4032C45.6857 59.5291 45.5516 58.8285 46.8464 58.727C49.6519 58.1966 46.974 53.3972 51.1789 54.5562C55.835 55.2568 60.4028 54.8999 64.8628 53.3972C65.5037 53.1812 65.6933 53.2827 65.9385 53.8261C66.7527 55.6332 66.9031 57.0999 65.52 58.9856C60.0693 66.3942 55.6454 74.4019 51.1331 82.4162L51.1298 82.4194Z" fill="#FEFEFE"/>
<path d="M20.3124 85.3069C15.3554 74.2251 28.1467 72.3721 27.4437 62.3314C27.375 54.4252 37.4295 52.3561 36.138 43.016C40.9805 50.6145 51.8197 49.3704 48.9881 51.2103C45.0644 50.824 47.144 55.8886 43.8971 56.3141C38.1162 57.8987 32.1195 61.1626 28.8137 66.1061C29.2028 67.851 28.029 68.9052 27.1756 70.1394C23.9549 74.8471 22.2546 79.9477 20.3091 85.3036L20.3124 85.3069Z" fill="#FEFEFE"/>
<path d="M135.607 186.926C132.21 186.706 129.123 186.238 126.066 186.376C122.263 186.546 120.311 184.942 119.268 181.376C118.542 178.895 117.238 176.577 116.1 174.23C115.649 173.303 115.881 172.868 116.626 172.22C119.782 169.47 123.584 169.81 127.325 169.774C127.734 169.771 127.904 170.056 128.034 170.344C130.519 175.768 132.991 181.196 135.604 186.922L135.607 186.926Z" fill="#FE8FBC"/>
<path d="M40.32 130.479C39.2508 130.502 38.4922 130.017 39.2901 129.215C52.9674 107.896 64.0094 85.0908 74.8781 62.2627C75.1069 61.788 74.9925 60.7927 76.0879 61.1921C77.18 61.5883 76.8432 62.2823 76.5685 63.0287C66.8181 86.5051 54.8639 109.765 40.3233 130.475L40.32 130.479Z" fill="#D2304D"/>
<path d="M126.37 166.736C109.894 166.314 117.947 177.569 109.639 160.061C125.563 159.851 119.066 153.11 126.37 166.736Z" fill="#FEFEFE"/>
<path d="M143.661 193.879C135.944 194.154 128.276 193.372 120.602 192.664C116.878 192.314 117.195 193.077 115.779 188.34C123.718 189.047 131.53 189.748 139.475 190.095C142.918 190.255 142.918 190.32 143.661 193.879Z" fill="#FE8FBC"/>
<path d="M123.071 148.196C121.704 147.646 119.854 148.255 119.612 146.641C119.556 145.774 118.882 145.332 117.977 145.46C117.055 145.591 116.737 146.213 116.728 147.083C116.574 148.678 116.806 152.06 115.191 152.796C113.994 152.449 113.942 147.61 113.752 146.34C114.046 144.035 110.646 143.407 110.76 145.97C110.708 147.018 108.929 146.265 108.213 146.468C107.003 146.73 106.784 144.608 108.017 144.455C111.476 143.698 114.37 141.986 116.512 139.105C116.721 138.824 116.95 138.352 117.382 138.827C119.834 141.518 122.165 144.284 123.071 148.2V148.196Z" fill="#FEFEFE"/>
<path d="M120.615 150.678C125.2 151.598 129.202 163.649 131.533 167.784C134.198 173.729 136.804 179.7 139.407 185.675C139.593 186.1 140.293 186.719 139.685 187.047C138.877 187.482 138.638 186.595 138.38 186.015C134.666 179.062 125.889 154.256 119.984 151.683C119.543 151.654 119.258 151.454 119.357 150.95C119.474 150.347 119.893 150.573 120.615 150.678Z" fill="#FCFCFC"/>
<path d="M9.95058 149.463C11.3566 149.951 12.707 150.541 14.1718 150.711C14.5282 150.753 14.865 150.809 14.7571 151.257C14.5675 152.046 14.9533 153.13 13.9266 153.513C11.9255 154.332 13.0732 156.852 12.7724 158.506C12.7626 159.285 12.7004 160.205 11.847 160.391C9.02524 160.539 9.29009 151.487 9.95058 149.463Z" fill="#FDFDFD"/>
<path d="M104.126 158.116C105.179 158.587 106.009 159.236 106.503 160.329C110.07 168.245 113.693 176.135 117.254 184.054C117.431 184.444 118.192 185.059 117.48 185.406C116.78 185.747 116.558 184.932 116.309 184.391C112.232 175.641 108.282 166.828 104.126 158.116Z" fill="#FAFAFA"/>
<path d="M26.5838 114.67C26.2306 118.601 25.8612 122.53 25.5407 126.465C25.4557 127.522 24.7756 127.179 24.259 127.071C23.5789 126.93 22.611 126.982 22.9478 125.761C23.9353 122.006 25.011 118.277 26.2306 114.591C26.3483 114.617 26.4628 114.643 26.5805 114.67H26.5838Z" fill="#D02F4C"/>
<path d="M62.417 48.5978C62.623 51.1612 62.6198 51.1449 60.3309 51.5508C59.0884 51.6687 52.1042 52.785 52.3102 51.0303C52.3233 50.1594 52.8922 50.2577 53.4121 50.2511C56.4693 50.2216 59.4219 49.5898 62.417 48.5978Z" fill="#FCFCFC"/>
<path d="M137.343 248.561C139.09 248.915 142.379 248.46 140.858 250.902C139.828 252.686 136.794 252.254 136.428 250.218C136.15 249.193 136.251 248.299 137.34 248.565L137.343 248.561Z" fill="#FAFAFA"/>
<path d="M169.197 251.272C169.534 251.305 170.286 251.465 171.035 251.439C173.837 251.393 171.434 255.011 169.711 254.559C167.657 254.726 165.846 250.794 169.197 251.272Z" fill="#FAFAFA"/>
<path d="M102.095 150.819C102.125 149.745 102.851 149.578 103.518 149.509C104.737 149.581 111.548 148.609 111.198 150.308C111.483 151.411 103.904 149.935 102.095 150.819Z" fill="#ECECEC"/>
<path d="M11.9156 163.541C13.0895 163.21 14.1652 162.748 15.0481 161.612C15.0644 162.951 16.2612 165.728 15.3979 166.458C13.7434 166.877 12.6186 164.844 11.9156 163.541Z" fill="#FBFBFB"/>
<path d="M34.6274 31.8033C34.4083 33.8592 34.2416 35.8464 34.6666 38.1283C32.7178 36.4652 31.7696 32.7691 34.6274 31.8033Z" fill="#F9F9F9"/>
<path d="M108.782 157.006C107.321 156.587 106.228 156.034 106.134 154.443C106.101 153.876 106.15 153.421 106.846 153.523C107.386 153.598 108.203 153.101 108.308 154.224C108.39 155.107 108.602 155.978 108.782 157.006Z" fill="#F9F9F9"/>
<path d="M18.0955 161.521C19.1745 161.498 19.6911 161.858 19.6323 162.932C19.3413 163.983 20.3614 166.029 19.0764 166.477C18.4355 166.504 18.6971 165.97 18.6546 165.656C18.465 164.33 18.2949 163.001 18.0988 161.521H18.0955Z" fill="#F3F3F3"/>
<path d="M113.814 156.319C113.948 157.589 111.633 156.25 111.568 155.527C111.378 154.973 110.767 154.227 111.509 153.811C112.163 153.444 112.297 154.332 112.569 154.731C112.948 155.291 113.811 155.471 113.814 156.319Z" fill="#E4E4E4"/>
<path d="M116.79 155.631C117.548 154.571 119.307 153.664 120.004 155.287C119.948 156.024 117.362 156.217 116.79 155.631Z" fill="#EFEFEF"/>
<path d="M22.6862 166.068C22.817 165.269 22.1598 163.168 22.8497 162.794C23.762 162.719 23.1963 165.541 22.6862 166.068Z" fill="#D0D0D0"/>
<path d="M103.152 156.099C103.008 155.418 101.621 154.007 102.73 153.674C103.675 153.801 103.129 155.392 103.358 156.093C103.289 156.093 103.22 156.096 103.152 156.099Z" fill="#C9C9C9"/>
<path d="M175.086 241.784C175.057 242.567 174.825 243.159 174.076 243.349C171.682 244.338 170.495 236.831 169.41 235.152C163.77 220.384 158.126 205.619 152.502 190.844C152.097 189.777 151.233 188.428 152.891 187.78C154.529 187.138 154.853 188.67 155.268 189.754C161.863 207.099 168.56 224.414 175.086 241.781V241.784Z" fill="black"/>
<path d="M157.315 241.519C157.452 243.549 154.775 243.677 154.349 241.948C153.323 239.257 152.26 236.583 151.276 233.878C147.695 223.972 144.033 214.088 140.525 204.156C140.162 203.229 140.43 202.496 141.339 202.172C142.33 201.818 142.994 202.276 143.337 203.278C147.767 216.098 152.698 228.768 157.315 241.519Z" fill="black"/>
<path d="M123.588 202.64C123.525 200.813 126.109 200.489 126.55 202.237C127.946 206.241 129.346 210.241 130.817 214.219C133.815 222.325 136.85 230.415 139.891 238.504C140.286 239.558 140.584 240.596 139.24 241.084C138.014 241.529 137.484 240.622 137.108 239.64C132.432 227.37 127.819 215.067 123.588 202.64Z" fill="black"/>
<path d="M156.557 185.429C152.136 184.454 158.881 179.825 159.885 178.162C161.01 177.189 161.978 174.416 163.792 175.621C164.594 176.207 164.63 176.999 164.061 177.765C162.105 180.384 159.784 182.676 157.544 185.043C157.269 185.331 156.916 185.465 156.557 185.429Z" fill="#020101"/>
</svg>
