<svg width="62" height="62" viewBox="0 0 62 62" fill="none" xmlns="http://www.w3.org/2000/svg">
<circle cx="31" cy="31" r="31" fill="#1EA1F1"/>
<path d="M23.6923 40.6558C21.7231 42.542 16.4103 43.4327 14 43.6423C15.7231 45.277 18.3077 45.8952 19.3846 46H28.5385C37.3385 46 43.1282 35.626 44.9231 30.439V24.1518C46.9538 23.7745 48.4872 21.3749 49 20.2222L45.5385 20.7724C47.5077 20.0808 47.8462 17.9693 47.7692 17C46.3538 18.3203 44.0513 18.7552 43.0769 18.8076C42.8308 17.4873 41.4359 17.0524 40.7692 17H35.2308C31.9077 17.9431 30.8205 21.0605 30.6923 22.5014V25.7236H26.3846C23.8 26.2266 17.9744 20.7986 15.3846 18.0217C12.8 23.4916 15.7436 27.112 17.5385 28.2385L14 27.374C14 32.0266 18.1026 34.6043 20.1538 35.3117H16.9231C17.5385 38.2038 21.6923 40.0795 23.6923 40.6558Z" fill="white"/>
</svg>
